<?xml version="1.0" encoding="utf-8"?>
<!-- Generator: Adobe Illustrator 24.0.2, SVG Export Plug-In . SVG Version: 6.00 Build 0)  -->
<svg version="1.1" id="Layer_1" xmlns="http://www.w3.org/2000/svg" xmlns:xlink="http://www.w3.org/1999/xlink" x="0px" y="0px"
	 viewBox="0 0 375 375" style="enable-background:new 0 0 375 375;" xml:space="preserve">
<style type="text/css">
	.st0{clip-path:url(#SVGID_2_);fill:#7B1D52;}
	.st1{fill:#7B1D52;}
</style>
<g>
	<defs>
		<rect id="SVGID_1_" x="32.23" y="39.45" width="310.5" height="310.5"/>
	</defs>
	<clipPath id="SVGID_2_">
		<use xlink:href="#SVGID_1_"  style="overflow:visible;"/>
	</clipPath>
	<path class="st0" d="M191.24,280.25c0.14,1.01,0,2.04-0.06,3.06c-0.07,1.13-0.07,2.25-0.01,3.38c0.07,1.17-0.16,2.31-0.04,3.49
		c0.14,1.36-0.04,2.75,0.11,4.11c0.15,1.36-0.22,2.75,0.22,4.09c0.02,0.1,0.01,0.2-0.02,0.29c-0.18,1.27-0.01,2.54,0,3.8
		c0.01,1.42,0.16,2.83,0.24,4.24c0.04,0.78,0,1.55,0.08,2.33c0.13,1.36,0.33,2.72,0.5,4.08c0.01,0.1,0.07,0.2,0.04,0.29
		c-0.36,1.09,0.09,2.14,0.12,3.21c0.01,0.42,0.23,0.84,0.42,1.24c0.07,0.14,0.31,0.19,0.47,0.28c0.07-0.12,0.14-0.23,0.2-0.36
		c0.02-0.05,0.02-0.09,0.02-0.14c0-1.47,0.39-2.94-0.04-4.4c0.2-1.2,0.16-2.4,0.06-3.6c-0.05-0.68-0.1-1.37-0.14-2.05
		c-0.01-0.19-0.01-0.39,0-0.58c0.09-0.92,0.05-1.84-0.09-2.76c-0.26-1.46,0.04-2.95-0.33-4.39c0.16-1.12-0.14-2.22-0.08-3.35
		c0.1-1.75-0.11-3.51-0.11-5.28c0-1.23,0-2.45,0-3.68c0-1.26-0.02-2.52,0.03-3.79c0.02-0.48,0.04-0.96,0.02-1.44
		c-0.03-0.73-0.05-1.47-0.03-2.2c0.01-0.82-0.19-1.64,0.03-2.46c0.05-0.18-0.05-0.39-0.06-0.58c0-0.02,0-0.03,0-0.05h-1.57
		C191.35,278.1,191.09,279.17,191.24,280.25z"/>
	<path class="st0" d="M185.74,280.53c0.13,0.86-0.09,1.73,0,2.57c0.11,1.01,0.12,2.03,0.04,3.05c-0.03,0.43,0.07,0.87,0.1,1.31
		c0.03,0.39,0.07,0.78,0.08,1.17c0.02,0.64,0.06,1.27,0.03,1.91c-0.04,0.97,0.02,1.94,0.07,2.91c-0.36,0.57-0.04,1.15-0.01,1.72
		c0.01,0.24,0.13,0.48,0.1,0.71c-0.13,1.12-0.01,2.23,0.02,3.35c0.02,0.92,0.22,1.84-0.06,2.76c-0.09,0.34-0.09,0.68,0.01,1.02
		c0.23,0.78,0.14,1.56,0.13,2.34c-0.02,2-0.05,4-0.06,6c0,2.1,0.1,4.2-0.27,6.29c-0.09,0.49,0.12,0.85,0.45,1.18
		c0.2,0.2,0.67,0.09,0.73-0.2c0.16-0.86,0.39-1.73,0.44-2.6c0.06-1.21-0.05-2.41,0.23-3.62c0.11-0.47-0.02-0.97,0-1.46
		c0.04-1.12,0.18-2.24,0.13-3.36c-0.05-1.08-0.27-2.14,0.07-3.21c0.04-0.13-0.04-0.29-0.05-0.43c-0.02-0.49-0.06-0.98-0.05-1.47
		c0.05-1.62,0.12-3.24-0.03-4.85c-0.04-0.44-0.11-0.9-0.02-1.32c0.18-0.88,0.18-1.75,0-2.63c-0.18-0.88,0.27-1.74-0.13-2.58
		c0.27-0.91-0.14-1.82,0.03-2.75c0.1-0.51-0.15-1.07-0.15-1.6c0-1.33,0.05-2.65,0.08-3.98c0-0.34,0.05-0.7-0.03-1.02
		c-0.23-0.88-0.16-1.74,0.04-2.62c0.06-0.34,0.08-0.67,0.05-1.01c0-0.36-0.03-0.72-0.05-1.08h-1.82
		C185.61,278.19,186.12,279.38,185.74,280.53z"/>
	<path class="st0" d="M248.44,148.09c-0.28,0.01-0.57,0-0.85-0.01c-0.09-0.02-0.17-0.06-0.25-0.11c0.08-0.04,0.17-0.08,0.26-0.1
		c0.15-0.01,0.29-0.02,0.44-0.01c0.12,0.01,0.26,0.02,0.4,0.04c0.04,0.01,0.08,0.04,0.12,0.07
		C248.53,148.01,248.49,148.09,248.44,148.09L248.44,148.09z M233.12,151.29c-0.39-0.21-0.76-0.43-1.13-0.68
		c-0.06-0.04-0.07-0.17-0.09-0.26c0.04-0.03,0.08-0.05,0.13-0.06c0.15-0.01,0.29-0.02,0.59-0.03c0.18,0.05,0.56,0.06,0.82,0.24
		s0.44,0.51,0.59,0.8C234.11,151.45,233.56,151.5,233.12,151.29z M245.95,114.77c-0.65,0.86-1.28,1.73-1.95,2.57
		c-0.38,0.46-0.81,0.84-1.31,1.15c-1.22,0.81-2.37,1.73-3.56,2.6c-0.24,0.17-0.47,0.41-0.73,0.48c-0.92,0.25-1.61,0.91-2.43,1.32
		c-0.82,0.41-1.66,0.81-2.41,1.38c-0.34,0.26-0.78,0.41-1.18,0.59c-0.08,0.04-0.21,0.07-0.25,0.03c-0.06-0.08-0.07-0.16-0.05-0.26
		c0.41-1.1,0.82-2.2,1.25-3.29c0.17-0.43,0.47-0.74,0.9-0.93c1.01-0.5,1.86-1.25,2.94-1.65c0.31-0.11,0.58-0.36,0.85-0.57
		c0.79-0.59,1.65-1.05,2.57-1.4c0.73-0.28,1.42-0.66,2.14-0.98c1.03-0.46,2.06-0.9,3.09-1.34c0.05-0.01,0.09,0,0.13,0.03
		c0.03,0.02,0.04,0.07,0.06,0.11C246,114.68,245.98,114.73,245.95,114.77L245.95,114.77z M178.67,155.25
		c-0.38,0.51-0.72,1.04-1.04,1.59c-0.41,0.65-0.88,1.13-1.72,1.2c-2.04,0.17-3.87,2.33-4.19,4.19c-0.16,0.8-0.04,1.55,0.35,2.26
		c0.43,0.77,1,1.43,1.71,1.96c0.15,1.22-0.29,2.32-0.8,3.38c-0.26,0.54-0.61,1.01-1.08,1.4c-0.46,0.39-0.98,0.66-1.56,0.81
		c-0.58,0.16-1.26,0.09-1.86,0c-0.3-0.03-0.57-0.13-0.82-0.31c-0.24-0.18-0.43-0.4-0.55-0.68c-0.38-0.86-1.03-1.52-1.71-2.17
		c-0.94-0.92-1.9-1.84-2.57-3c-0.21-0.39-0.31-0.8-0.31-1.24c-0.05-0.85,0-1.62,0.37-2.42c0.38-0.82,0.26-1.74,0.11-2.61
		c-0.24-1.28-0.12-2.52,0.37-3.73c0.44-1.1,1.08-2.06,1.71-3.04c0.75-1.15,1.41-2.36,2-3.6c0.74-1.55,1.7-2.96,2.87-4.22
		c0.77-0.85,1.67-1.49,2.52-2.23c0.05-0.05,0.16-0.03,0.24-0.04c0,0.09,0.02,0.2-0.02,0.27c-1.16,1.99-2.13,4.07-2.88,6.25
		c-0.1,0.22-0.21,0.43-0.33,0.64c-0.98,2.04-1.66,4.18-2.04,6.41c-0.31,1.73-0.42,3.51,0.04,5.26c0.03,0.09,0.08,0.17,0.13,0.25
		c0.04-0.07,0.08-0.15,0.12-0.23c0.01-0.05,0.02-0.1,0.02-0.15c0-0.15,0.02-0.29,0.01-0.44c-0.09-2.59,0.54-5.07,1.3-7.51
		c0.43-1.4,1.02-2.75,1.55-4.12c0.45-1.13,0.95-2.25,1.4-3.38c0.63-1.61,1.49-3.09,2.43-4.52c0.16-0.24,0.38-0.44,0.63-0.59
		c0.77-0.44,1.51-0.98,2.34-1.22c1.45-0.42,2.64-1.28,3.81-2.12c0.98-0.7,2.04-1.35,2.85-2.29c0.25-0.29,0.53-0.57,0.8-0.84
		c0.08-0.06,0.16-0.09,0.26-0.1c0.03,0.04,0.05,0.08,0.06,0.12c0.11,0.71,0.45,1.4,0.02,2.13c-0.14,0.24-0.1,0.57-0.19,0.85
		c-0.2,0.77-0.57,1.45-1.09,2.05c-0.76,0.83-1.47,1.71-2.12,2.63c-0.43,0.62-0.7,1.37-1.05,2.05c-0.5,0.97-0.08,1.91,0.04,2.87
		c0.86,1.18,0.55,2.45,0.2,3.66C180.52,152.36,179.75,153.88,178.67,155.25L178.67,155.25z M178.02,159.1
		c-0.43,0.44-0.57,1.03-0.72,1.59c-0.27,0.94-0.67,1.82-1.22,2.64c-0.61,0.93-1.09,1.96-1.6,2.96c-0.19,0.37-0.43,0.29-0.7,0.17
		c-0.05-0.28-0.13-0.55-0.23-0.81c-0.16-0.3-0.33-0.6-0.52-0.88c-0.47-0.81-0.56-1.63-0.12-2.5c0.38-0.75,0.8-1.46,1.53-1.92
		c0.16-0.11,0.33-0.2,0.52-0.25c1.06-0.22,2.07-0.54,2.92-1.24c0.04-0.01,0.08-0.01,0.12,0
		C178.02,158.94,178.07,159.07,178.02,159.1L178.02,159.1z M166.92,128.72c-0.03,0.03-0.07,0.1-0.1,0.1
		c-0.97-0.12-1.89-0.4-2.62-1.09c-0.16-0.18-0.29-0.39-0.39-0.61c-0.05-0.09-0.06-0.18-0.02-0.27c0.07-0.07,0.15-0.09,0.24-0.06
		c0.67,0.35,1.46,0.51,1.78,1.37c0.16,0.43,0.72,0.14,1.05,0.34C166.9,128.53,166.9,128.65,166.92,128.72z M169.77,125.79
		c0.13-0.31,0.33-0.59,0.47-0.91c0.54-1.26,0.55-1.28,0.64-1.12c0.25,0.43-0.07,0.84-0.09,1.26c0.16,0.09,0.42,0.15,0.47,0.27
		c0.14,0.45,0.37,0.98,0.25,1.38c-0.17,0.54-0.86,0.2-1.29,0.4c-0.45,0.18-0.92,0.31-1.4,0.4c-0.13,0.04-0.26,0.05-0.4,0.03
		c-0.13-0.02-0.26-0.07-0.38-0.14c-0.12-0.07-0.21-0.17-0.29-0.28s-0.13-0.24-0.15-0.37c-0.04-0.39-0.05-0.77-0.01-1.16
		c0.02-0.14,0.06-0.28,0.12-0.42c0.15,0.09,0.28,0.2,0.41,0.32c0.19,0.22,0.31,0.51,0.52,0.69c0.41,0.35,0.86,0.45,1.29,0
		C169.87,126.03,169.74,125.88,169.77,125.79L169.77,125.79z M175.58,118.9c-0.12-0.22-0.24-0.36-0.26-0.52
		c-0.01-0.07,0.17-0.23,0.28-0.24c0.21-0.02,0.38,0.11,0.33,0.35C175.89,118.62,175.75,118.71,175.58,118.9L175.58,118.9z
		 M173.41,119.21c0.03-0.22,0.13-0.41,0.31-0.56s0.37-0.21,0.6-0.21c0.09,0,0.18,0.17,0.23,0.23c0.03,0.57-0.35,0.72-0.72,0.86
		c-0.13,0.03-0.26,0.01-0.37-0.06C173.4,119.45,173.39,119.29,173.41,119.21L173.41,119.21z M174.03,123.51
		c0.11,0.1,0.2,0.21,0.27,0.33c0.19,0.47,0.51,0.83,0.94,1.09c0.37,0.21,0.47,0.6,0.54,0.99c0.01,0.1-0.02,0.19-0.08,0.26
		c-0.07,0.08-0.15,0.12-0.25,0.12c-0.29-0.01-0.57-0.04-0.86-0.07c-1.24,0.07-1.34,0-1.36-1.23c-0.01-0.44,0.02-0.87,0.07-1.3
		C173.35,123.41,173.83,123.3,174.03,123.51z M176,122.64c0.13-0.1,0.2-0.19,0.25-0.18c0.17,0.02,0.32,0.09,0.44,0.22
		c0.12,0.13,0.18,0.28,0.19,0.45c-0.01,0.09-0.04,0.17-0.1,0.23c-0.05,0.02-0.09,0.02-0.14,0
		C176.43,123.13,176.22,122.89,176,122.64z M176.57,124.78c0.12,0.08,0.25,0.11,0.26,0.18c0.06,0.27,0.11,0.55,0.13,0.83
		c0,0.06-0.1,0.17-0.17,0.19c-0.07,0.02-0.22-0.03-0.24-0.09c-0.1-0.27-0.17-0.54-0.22-0.82
		C176.32,124.98,176.49,124.87,176.57,124.78z M167.2,143.92c-0.24,0.04-0.49-0.01-0.73,0c-0.14,0.01-0.33,0.03-0.42,0.12
		c-0.72,0.81-1.55,0.63-2.4,0.31c-0.02-0.01-0.11,0.07-0.11,0.08c0.04,0.08,0.08,0.21,0.14,0.23c0.32,0.1,0.66,0.17,0.99,0.26
		c0.04,0.02,0.09,0.04,0.13,0.07c-0.05,0.06-0.09,0.16-0.15,0.17c-0.33,0.1-0.67,0.28-0.99,0.24c-1.17-0.14-2.35-0.08-3.52-0.06
		c-2.2,0.05-4.38-0.27-6.57-0.27c-0.85-0.36-1.74-0.04-2.61-0.17c-0.87-0.13-1.75-0.2-2.62-0.34c-0.68-0.11-1.34-0.31-2-0.48
		c-0.66-0.16-1.32-0.36-1.97-0.54c-0.15-0.02-0.28-0.07-0.41-0.16c-0.62-0.55-1.4-0.64-2.15-0.86c-0.99-0.28-1.95-0.66-2.91-1.03
		c-1.33-0.51-2.64-1.04-3.96-1.57c-0.27-0.11-0.54-0.24-0.79-0.38c-0.81-0.45-1.57-1.06-2.44-1.33c-0.9-0.28-1.58-1-2.53-1.13
		c-0.18-0.02-0.34-0.18-0.5-0.29c-1.76-1.24-3.6-2.36-5.51-3.35c-0.13-0.06-0.26-0.14-0.38-0.22c-0.11-0.07-0.18-0.16-0.21-0.29
		c-0.03-0.13-0.01-0.24,0.06-0.35c0.05-0.13,0.09-0.27,0.1-0.41c1.19-0.56,2.07-1.43,2.65-2.61c0.35-0.67,0.87-1.18,1.55-1.51
		c0.18-0.07,0.36-0.16,0.53-0.26c0.73-0.55,1.35-0.45,2.13,0.05c1.77,1.14,3.6,2.2,5.45,3.21c1.76,0.98,3.44,2.1,5.02,3.34
		c0.09,0.07,0.25,0.03,0.38,0.04c-0.05-0.12-0.07-0.28-0.17-0.36c-1.57-1.33-3.08-2.73-4.9-3.75c-1.67-0.93-3.29-1.95-4.93-2.95
		c-0.2-0.13-0.39-0.28-0.57-0.43c0.22-0.19,0.45-0.36,0.68-0.52c0.51-0.3,1.02-0.59,1.55-0.84c0.33-0.16,0.56-0.34,0.65-0.72
		c0.23-1,1.03-1.64,1.55-2.46c0.18-0.27,0.44-0.4,0.76-0.38c0.75,0.01,1.3-0.35,1.79-0.87c0.27-0.29,0.58-0.53,0.87-0.79
		c0.88-0.78,1.93-0.88,3.02-0.69c0.67,0.12,1.35,0.29,1.82,0.87c0.1,0.11,0.23,0.17,0.38,0.2c0.1,0.03,0.19,0.02,0.28-0.03
		c0.09-0.05,0.15-0.12,0.18-0.22c0.06-0.17,0.16-0.38-0.17-0.43c-0.19-0.02-0.36-0.1-0.5-0.22c-0.35-0.39-0.82-0.53-1.26-0.73
		c-0.7-0.34-1.43-0.5-2.21-0.49c-0.78,0.01-1.5,0.2-2.19,0.57c-0.52,0.26-0.91,0.18-1.36-0.13c-0.48-0.34-1.01-0.62-1.51-0.91
		c-1.88-1.12-3.99-1.62-6.05-2.28c-0.33-0.1-0.65-0.2-0.99-0.29c-1.18-0.32-1.72-1.21-2.03-2.3c-0.13-0.52-0.29-1.04-0.48-1.54
		c-0.68-1.66-0.59-3.19,0.41-4.75c0.6-0.93,1.24-1.84,1.82-2.79c0.18-0.29,0.33-0.59,0.47-0.91c0.11-0.27,0.17-0.56,0.26-0.84
		c0.62-1.96,1.54-2.83,3.54-3.29c0.52-0.12,1.07-0.16,1.6-0.24c0.58-0.06,1.16-0.17,1.72-0.31c0.58-0.17,0.99-0.61,1.31-1.13
		c0.48-0.8,0.98-1.59,1.45-2.4c0.69-1.2,1.64-2.17,2.67-3.09c0.48-0.42,0.96-0.84,1.46-1.23c1.02-0.78,2.73-0.99,4.13,0.02
		c1.19,0.85,2.04,1.96,2.57,3.33c0.68,1.67,1.47,3.29,2.69,4.68c1.48,1.71,2.78,3.55,4.16,5.33c0.42,0.54,0.86,1.07,1.25,1.63
		c0.84,1.21,1.64,2.44,2.48,3.64c0.42,0.6,0.89,1.17,1.36,1.74c0.04,0.04,0.16,0.02,0.24,0.03c0-0.09,0.04-0.2,0.01-0.27
		c-0.85-1.94-2.01-3.68-3.23-5.39c-0.88-1.24-1.77-2.47-2.66-3.7c-0.26-0.36-0.57-0.68-0.84-1.03c-0.3-0.39-0.58-0.79-0.86-1.19
		c-0.2-0.28-0.36-0.58-0.57-0.85c-0.4-0.5-0.86-0.93-1.02-1.59c-0.07-0.26-0.34-0.47-0.5-0.72c-0.66-0.99-1.22-2.02-1.4-3.21
		c-0.03-0.24-0.11-0.48-0.17-0.72c-0.2-0.98-0.65-1.83-1.35-2.55c-0.44-0.45-0.95-0.88-1.09-1.55c-0.07-0.33-0.18-0.71-0.08-1
		c0.24-0.69,0.47-1.45,0.93-1.97c0.61-0.68,1.2-1.4,1.93-2.01c1.29-1.09,2.24-2.45,2.59-4.17c0.19-0.93,1.35-1.97,2.25-2.33
		c1-0.39,1.88-0.88,2.53-1.86c0.54-0.82,1.35-1.46,2.52-1.55c1.37-0.09,2.72,0.06,4.04,0.45c1.57,0.43,2.68,1.58,3.69,2.8
		c0.25,0.3,0.44,0.65,0.69,0.96c0.31,0.37,0.4,0.78,0.25,1.24c-0.26,0.83-0.14,1.64-0.02,2.47c0.17,1.22,0.36,2.42,0.83,3.56
		c0.57,1.37,0.82,2.83,1.13,4.26c0.48,2.15,0.87,4.32,1.3,6.48c-0.08,1.24,0.44,2.4,0.58,3.61c0.1,0.63,0.24,1.24,0.43,1.85
		c0.19,0.67,0.71,1.03,1.3,1.31c0.04,0.02,0.2-0.09,0.2-0.13c-0.02-0.29-0.05-0.58-0.11-0.86c-0.17-0.86-0.61-1.64-0.72-2.54
		c-0.18-1.45-0.5-2.89-0.78-4.34c-0.47-2.4-0.8-4.83-1.64-7.14c-0.43-1.2-0.91-2.38-1.17-3.64c-0.12-0.58-0.31-1.14-0.4-1.72
		c-0.23-1.47-0.03-2.91,0.37-4.34c0.14-0.51,0.4-0.91,0.87-1.12c0.7-0.31,1.02-0.85,1.12-1.59c0.13-0.95,0.67-1.73,1.27-2.45
		c0.36-0.43,0.79-0.75,1.41-0.5c0.28,0.11,0.42-0.07,0.63-0.2c1.14-0.67,2.15-1.54,3.36-2.11c0.4-0.21,0.83-0.27,1.27-0.18
		c0.33,0.08,0.67,0.15,1.01,0.19c0.53,0.05,0.93,0.25,1.19,0.73c0.06,0.14,0.16,0.25,0.27,0.34c1.3,0.85,1.81,2.25,2.59,3.49
		c0.79,1.27,0.71,2.61,0.91,3.94c0.04,0.27-0.07,0.58-0.16,0.86c-0.24,0.82-0.28,1.65-0.11,2.48c0.23,1.47,0.19,2.93-0.13,4.39
		c-0.05,0.19-0.09,0.38-0.11,0.58c-0.07,1.68-0.79,3.12-1.56,4.55c-0.58,1.08-1.13,2.17-1.67,3.27c-0.22,0.44-0.3,0.92-0.4,1.4
		c-0.29,1.41-0.11,2.82-0.13,4.24c-0.02,1.41,0.21,2.83,0.35,4.24c0.03,0.34,0.06,0.68,0.06,1.03c0.04,1.86,0.07,3.73,0.11,5.59
		c0,0.09,0.11,0.19,0.16,0.28c0.05-0.08,0.08-0.17,0.1-0.27c0.23-1.8,0.54-3.59,0.64-5.4c0.06-1.11,0.48-2.22,0.1-3.35
		c0.01-2.84-0.2-5.69,0.74-8.45c0.35-1.01,0.84-1.95,1.24-2.93c0.22-0.54,0.48-1.08,0.7-1.62c0.09-0.17,0.14-0.36,0.16-0.56
		c-0.08-1.23,0.44-2.31,0.96-3.35c0.69-1.36,1.54-2.63,2.2-4c0.32-0.71,0.73-1.37,1.21-1.99c0.56-0.68,1.13-1.34,1.57-2.11
		c0.29-0.46,0.66-0.85,1.11-1.15c1.11-0.8,2.21-1.61,3.31-2.42c0.22-0.16,0.45-0.13,0.68-0.16c0.59-0.08,1.16,0.39,1.72,0.04
		c0.46-0.28,0.86-0.65,1.29-0.97c0.7-0.53,1.39-1.09,2.13-1.57c0.65-0.42,1.33-0.83,2.13-0.95c0.96-0.14,1.6,0.4,1.59,1.37
		c0,0.24-0.06,0.48-0.08,0.73c-0.05,0.69,0.04,1.36,0.29,2c0.22,0.58,0.49,1.02,1.19,1.14c0.6,0.1,1.03,0.54,1.37,1.04
		c0.52,0.78,1.09,1.51,1.57,2.3c0.24,0.37,0.53,0.7,0.87,0.98c0.68,0.58,1,1.31,0.98,2.2c0.02,1.48-0.27,2.92-0.54,4.36
		c-0.16,0.87-0.19,1.74-0.1,2.62c0.09,0.98,0.14,1.97-0.25,2.91c-0.37,0.89-0.71,1.79-1.28,2.59c-0.51,0.71-0.89,1.52-1.36,2.27
		c-1.36,2.16-2.68,4.33-4.35,6.28c-1.34,1.55-2.62,3.17-3.91,4.77c-0.1,0.13-0.12,0.32-0.17,0.49c0.17-0.07,0.33-0.15,0.49-0.25
		c0.59-0.44,1.16-0.9,1.74-1.35c1.05-0.82,1.89-1.86,2.71-2.9c1.99-2.5,3.6-5.25,5.37-7.9c0.3-0.93,0.91-1.73,1.26-2.64
		c0.61-1.58,1.55-2.95,2.62-4.24c0.41-0.49,0.86-0.95,1.21-1.48c0.95-1.44,2.2-2.63,3.31-3.92c0.51-0.59,1.05-1.16,1.6-1.71
		c0.16-0.16,0.41-0.33,0.61-0.32c0.28,0.01,0.47,0.03,0.54-0.28c0.09-0.3,0.28-0.51,0.57-0.62c0.39-0.19,0.73-0.54,1.13-0.66
		c0.61-0.18,1.24-0.26,1.88-0.24c1.07,0.04,2.14,0.15,3.2,0.33c0.62,0.1,1.04,0.75,0.99,1.45c-0.06,0.73-0.17,1.45-0.31,2.17
		c-0.11,0.58-0.31,1.14-0.41,1.71c-0.07,0.33-0.08,0.67-0.02,1.01c0.18,0.92,0.54,1.27,1.49,1.33c0.64,0.02,1.27,0,1.9-0.08
		c1.13-0.1,2.26-0.28,3.32,0.27c0.56,0.29,1.16,0.57,1.63,0.98c0.34,0.31,0.53,0.81,0.72,1.25c0.09,0.28,0.14,0.57,0.16,0.87
		c0.16,1.48,0.63,2.86,1.41,4.13c0.1,0.17,0.18,0.35,0.24,0.54c0.28,0.78,0.11,0.99-0.59,1.54c-0.67,0.53-1.27,0.55-2.04,0.26
		c-1.05-0.4-2.13-0.73-3.22-1c-1.52-0.37-3-0.05-4.49,0.36c-1.95,0.55-3.46,1.81-5.12,2.85c-1.4,0.88-2.31,2.22-3.42,3.38
		c-0.13,0.15-0.23,0.32-0.31,0.5c-0.57,1.11-1.44,1.98-2.35,2.8c-0.95,0.86-1.94,1.67-2.3,2.97c-0.78,1.01-1.03,2.22-1.2,3.43
		c-0.13,1-0.4,2.02-0.19,3.04c0.09,0.43,0.22,0.85,0.34,1.27c0.02,0.09,0.11,0.16,0.17,0.23c0.06-0.1,0.18-0.22,0.16-0.31
		c-0.15-0.91,0.13-1.74,0.38-2.59c0.21-0.7,0.35-1.43,0.6-2.12c0.56-1.5,0.97-3.08,2.28-4.2c0.44-0.37,0.76-0.86,1.27-1.19
		c0.43-0.28,0.73-0.79,1.04-1.22c0.72-0.98,1.38-2.02,2.14-2.97c0.45-0.52,0.95-0.99,1.5-1.4c1.68-1.35,3.47-2.57,5.45-3.42
		c1.48-0.65,3.02-0.83,4.62-0.56c1.16,0.2,2.3,0.47,3.45,0.7c0.13,0.02,0.23,0.09,0.29,0.2c0.07,0.11,0.08,0.23,0.03,0.35
		c-0.92,2.7-1.75,5.42-3.31,7.85c-0.03,0.04-0.05,0.08-0.08,0.13c-0.26,0.42-0.39,0.48-0.84,0.35c-0.43-0.12-0.84-0.27-1.27-0.37
		c-0.48-0.11-0.97-0.16-1.45-0.24c-0.41-0.05-0.78,0.04-1.11,0.28c-2.15,1.28-3.85,3.01-5.08,5.19c-0.38,0.68-0.83,1.33-1.26,1.99
		c-0.48,0.7-1.09,1.26-1.84,1.66c-0.64,0.36-1.28,0.73-1.94,1.05c-0.31,0.14-0.64,0.24-0.98,0.3c-0.48,0.1-0.96,0.18-1.45,0.25
		c-0.46,0.04-0.85,0.23-1.16,0.57c-0.68,0.79-1.59,0.97-2.55,0.78c-1.86-0.37-3.71-0.19-5.53,0.16c-1.15,0.22-2.32,0.34-3.45,0.6
		c-1.91,0.44-3.85,0.73-5.81,0.87c-1.07,0.08-2.12,0.36-3.18,0.55c-0.82,0.16-1.65,0.28-2.46,0.46c-0.41,0.09-0.66-0.04-0.83-0.4
		c-0.04-0.09-0.11-0.17-0.15-0.26c-0.61-1.38-1.67-2.39-2.79-3.34c-0.49-0.43-1.05-0.71-1.7-0.82c-1.3-0.21-2.6-0.44-3.89-0.66
		c-0.1-0.02-0.19-0.04-0.29-0.06c-0.42-0.12-0.76-0.5-1.24-0.4c-0.95,0.19-1.98-0.01-2.87,0.54c-0.23,0.16-0.48,0.24-0.75,0.25
		c-0.28,0.01-0.53-0.06-0.77-0.21c-0.36-0.2-0.84-0.23-1.26-0.3c-0.2-0.02-0.39-0.01-0.58,0.05c-0.15,0.03-0.27,0.1-0.37,0.21
		c-0.35,0.6-1.2,0.45-1.54,1.07c-0.14,0.26-0.36,0.47-0.52,0.71c-0.21,0.34-0.5,0.49-0.87,0.39c-0.49-0.14-0.82,0.06-1.19,0.34
		c-0.95,0.7-1.92,1.37-2.62,2.35c-0.16,0.19-0.35,0.34-0.57,0.45c-0.65,0.35-0.99,0.92-1.22,1.59c-0.35,1.02-0.78,2.02-0.78,3.13
		c0,0.27-0.17,0.55-0.3,0.81c-0.08,0.13-0.2,0.19-0.35,0.19c-0.6-0.18-1.27-0.17-1.74-0.71c-0.16-0.18-0.37-0.39-0.58-0.43
		c-0.71-0.14-1.03-0.67-1.35-1.21c-0.06,0.19-0.12,0.37-0.2,0.55c-0.13,0.25-0.1,0.48,0.08,0.69c0.21,0.27,0.44,0.52,0.69,0.76
		c0.31,0.28,0.47,0.62,0.48,1.04c0.03,0.89,0.67,1.44,1.33,1.79c1.3,0.67,2.64,1.31,4.18,1.22c0.15-0.01,0.28,0.02,0.41,0.09
		c1.48,0.78,3.06,1.32,4.63,1.88c1.29,0.46,2.59,0.93,3.65,1.86c0.11,0.1,0.23,0.18,0.36,0.26c0.87,0.53,1.73,0.69,2.57-0.06
		c0.16-0.12,0.32-0.23,0.49-0.33c1.8-1.22,2.44-1.86,2.06-1.83c-0.98,0.09-1.62,0.86-2.37,1.37c-1.22,0.83-1.4,0.97-2.74-0.31
		c-1-0.95-1.98-1.9-3.23-2.52c-0.75-0.38-1.48-0.76-2.33-0.85c-0.28-0.03-0.55-0.2-0.81-0.33c-0.08-0.06-0.11-0.13-0.11-0.23
		c0.03-0.09,0.09-0.15,0.18-0.19c0.38-0.08,0.78-0.16,1.16-0.21c1.25-0.19,2.5-0.4,3.76-0.54c0.8-0.11,1.57,0.01,2.3,0.35
		c0.45,0.21,0.92,0.32,1.41,0.34c1.24,0.05,2.4,0.42,3.59,0.71c0.28,0.09,0.55,0.21,0.8,0.36c0.41,0.22,0.7,0.48,0.55,1.05
		c-0.09,0.35,0.16,0.79,0.05,1.12c-0.1,0.33-0.55,0.57-0.71,0.91c-0.5,1.09-1.5,1.66-2.34,2.4c-0.83,0.7-1.75,1.26-2.75,1.67
		c-1.76,0.78-3.31,1.89-4.84,3.04c-0.19,0.15-0.35,0.32-0.5,0.51c-0.66,0.87-1.41,1.62-2.46,2.03
		C169.78,143.75,168.45,143.72,167.2,143.92z M213.53,119.59c-0.39,0.37-0.8,0.7-1.24,1.01c-0.73,0.45-1.35,0.99-1.67,1.8
		c-0.52,1.34-1.6,1.9-2.91,2.19c-0.87,0.19-1.74,0.13-2.61-0.01c-1.43-0.22-2.62-1-3.83-1.71c-0.41-0.24-0.76-0.36-1.23-0.24
		c-0.47,0.12-0.99,0.07-1.45,0.22c-0.98,0.33-1.83,0.1-2.64-0.47c-0.24-0.17-0.49-0.32-0.72-0.5c-0.08-0.07-0.11-0.15-0.1-0.25
		c0.01-0.05,0.14-0.1,0.23-0.12c1.38-0.36,2.77-0.61,4.53-0.48c0.47,0.08,1.23,0,2-0.17c0.72-0.15,1.44-0.24,2.17-0.27
		c0.58-0.02,1.15-0.19,1.72-0.31c0.82-0.16,1.63-0.32,2.45-0.48c0.19-0.04,0.39-0.07,0.57-0.12c1.42-0.41,2.88-0.54,4.35-0.55
		c0.05-0.01,0.1-0.01,0.15,0.01c0.12,0.05,0.23,0.11,0.33,0.19C213.66,119.36,213.59,119.53,213.53,119.59L213.53,119.59z
		 M190.72,121.27c-0.43,0.31-0.87,0.62-1.32,0.9c-0.09,0.06-0.25,0-0.37,0c0.01-0.09,0.02-0.18,0.04-0.28
		c0.2-0.73-0.16-1.28-0.59-1.81c-0.16-0.18-0.35-0.33-0.49-0.52c-0.08-0.1-0.1-0.22-0.09-0.35c0.02-0.13,0.08-0.23,0.18-0.31
		c0.1-0.09,0.22-0.22,0.35-0.03c0.32,0.48,0.63,0.96,0.97,1.44c0.25,0.36,0.57,0.49,1.01,0.31c0.25-0.1,0.36,0.11,0.41,0.3
		C190.84,121.05,190.81,121.17,190.72,121.27z M182.13,123.19c-0.03,0.13-0.07,0.31-0.12,0.5c-0.06,0.22-0.33,0.43-0.37,0.31
		c-0.05-0.13-0.06-0.27-0.04-0.41c0.04-0.29,0.1-0.57,0.17-0.85c0.02-0.06,0.1-0.1,0.16-0.16c0.06,0.07,0.11,0.14,0.16,0.23
		C182.1,122.95,182.12,123.07,182.13,123.19L182.13,123.19z M182.19,117.98c0.01,0.06-0.1,0.2-0.13,0.19
		c-0.19-0.04-0.37-0.12-0.54-0.21c-0.6-0.39-1.32-0.61-1.79-1.19c0.85-0.07,1.58,0.27,2.3,0.67
		C182.09,117.62,182.14,117.8,182.19,117.98L182.19,117.98z M183.84,118.23c0.02,0.03-0.04,0.18-0.1,0.22
		c-0.08,0.05-0.17,0.05-0.25,0.01c-0.25-0.22-0.47-0.47-0.71-0.7c-0.2-0.19-0.42-0.35-0.71-0.34c0.61-0.42,1.24-0.17,1.85,0
		c0.02,0,0.02,0.22-0.02,0.24C183.61,117.84,183.65,118.01,183.84,118.23L183.84,118.23z M178.72,118.8
		c-0.17,0.06-0.35,0.12-0.51,0.2c-0.11,0.05-0.2,0.27-0.33,0.05c-0.15-0.25-0.28-0.51-0.4-0.78c-0.05-0.09-0.07-0.18-0.04-0.28
		c0.03-0.1,0.08-0.17,0.17-0.22c0.22-0.13,0.48-0.18,0.68,0C178.58,118.04,178.72,118.39,178.72,118.8L178.72,118.8z M179.2,119.83
		c0,0.05-0.01,0.09-0.03,0.14c-0.07-0.02-0.16-0.02-0.19-0.07c-0.26-0.32-0.34-0.69-0.24-1.09
		C179.06,119.08,179.15,119.44,179.2,119.83L179.2,119.83z M178.91,116.99c-0.07,0.02-0.16-0.07-0.24-0.11
		c0.05-0.07,0.07-0.17,0.14-0.21c0.31-0.19,0.6-0.18,0.86,0.1C179.42,116.84,179.17,116.92,178.91,116.99L178.91,116.99z
		 M187.69,123.23c-1.04,0.63-1.74,1.54-2.24,2.63c-0.06,0.14-0.37,0.18-0.42,0.31c-0.21,0.59-0.39,1.19-0.54,1.8
		c-0.1,0.39-0.28,0.57-0.56,0.4c-1.04-0.6-2.19-0.76-3.35-0.94c-0.71-0.11-1.4-0.44-2.09-0.68c-0.1-0.02-0.18-0.08-0.22-0.18
		c-0.04-0.1-0.03-0.19,0.02-0.28c0.21-0.44,0.09-0.84-0.06-1.27c-0.27-0.78-0.51-1.58-0.74-2.38c-0.04-0.12-0.03-0.24,0.04-0.35
		c0.06-0.11,0.16-0.18,0.29-0.21c0.33-0.08,0.62,0.05,0.7,0.35c0.08,0.28,0.15,0.57,0.2,0.86c0.14,0.87,0.78,1.45,1.22,2.14
		c0.14,0.23,0.42,0.23,0.66,0.12c0.44-0.2,0.74-0.05,0.97,0.36c0.09,0.16,0.27,0.38,0.42,0.38c0.63,0,0.94,0.7,1.57,0.67
		c0.23,0,0.45,0.01,0.68,0.03c-0.03-0.19-0.12-0.39-0.09-0.57c0.06-0.38,0.17-0.75,0.33-1.11c0.35-0.73,0.38-0.72,0.25-0.98
		c-0.16-0.31-0.31-0.61-0.48-0.9c-0.06-0.07-0.14-0.1-0.23-0.09c-0.08,0.06-0.12,0.14-0.13,0.24c0,0.19,0.04,0.38,0.06,0.57
		c0,0.03-0.06,0.07-0.1,0.08c-0.05,0.01-0.1,0-0.14-0.03c-0.25-0.32-0.36-0.68-0.34-1.09c0.01-0.25,0.02-0.49,0.02-0.65
		c0-0.16-0.01-0.28-0.01-0.38c0-0.28-0.1-0.73,0.2-0.76c0.4-0.04,0.9-0.04,1.19,0.39c0.21,0.32,0.38,0.68,0.62,0.99
		c0.11,0.14,0.35,0.27,0.51,0.07c0.27-0.34,0.54-0.34,0.89-0.16c0.26,0.14,0.54,0.23,0.81,0.36
		C187.71,123,187.88,123.11,187.69,123.23z M269.33,131.54c-0.14-0.15-0.21-0.33-0.21-0.53c0.01-0.28-0.12-0.47-0.37-0.58
		c-0.24-0.17-0.49-0.32-0.76-0.44c-0.34-0.14-0.51-0.41-0.37-0.68c0.4-0.74,0.14-1.54,0.25-2.3c0.1-0.72-0.1-1.42-0.82-1.9
		c-0.52-0.35-0.92-0.87-1.4-1.28c-0.66-0.59-1.16-1.3-1.5-2.12c-0.45-1.03-1.09-1.97-1.65-2.95c-0.89-0.52-1.29-1.47-1.85-2.25
		c-1.21-1.7-2.71-3.08-4.26-4.43c-0.85-0.73-1.84-1.12-2.97-1.16c-0.92-0.05-1.86,0.16-2.56,0.89c-0.11,0.1-0.24,0.17-0.38,0.22
		c-1.35,0.56-2.69,1.14-4.02,1.76c-1.42,0.66-2.95,1.09-4.46,1.52c-2.04,0.59-3.97,1.38-5.74,2.55c-0.74,0.48-1.48,0.95-2.23,1.43
		c-0.09,0.04-0.18,0.06-0.27,0.07c-0.03-0.09-0.05-0.19-0.06-0.28c0.08-2.01,0.21-4.01-0.08-6.02c-0.09-0.67-0.01-1.37-0.01-2.06
		c-0.01-0.1-0.04-0.19-0.08-0.28c-0.06,0.07-0.11,0.14-0.14,0.23c-0.23,1-0.43,2.02-0.43,3.05c0,0.79-0.09,1.57-0.13,2.36
		c-0.09,1.69-0.56,3.28-1.4,4.75c-0.33,0.59-0.92,1.06-0.6,1.86c0.03,0.07-0.03,0.19-0.08,0.28c-0.5,0.95-0.92,1.95-1.53,2.83
		c-0.54,0.75-1.04,1.52-1.49,2.33c-0.09,0.17-0.16,0.38-0.3,0.49c-1.02,0.85-1.81,1.92-2.72,2.86c-0.69,0.7-1.43,1.33-2.23,1.9
		c-0.39,0.28-0.85,0.47-1.15,0.88c-0.11,0.17-0.25,0.3-0.43,0.39c-1.28,0.47-2.23,1.4-3.26,2.23c-0.3,0.26-0.63,0.47-0.99,0.63
		c-1.06,0.43-1.97,1.1-2.9,1.73c-0.59,0.42-1.22,0.79-1.86,1.12c-1.59,0.77-3.2,1.48-4.73,2.36c-0.21,0.12-0.42,0.22-0.66,0.29
		c-1.4,0.4-2.79,0.82-4.25,1.09c-1.88,0.33-3.73,0.85-5.59,1.24c-2.53,0.52-4.82,1.55-6.9,3.09c-0.14,0.13-0.3,0.24-0.47,0.34
		c-1.03,0.49-1.94,1.16-2.72,2c-0.65,0.67-1.4,1.21-2.24,1.63c-0.51,0.25-0.93,0.49-1.01,1.13c-0.02,0.17-0.19,0.34-0.34,0.47
		c-1.11,0.89-2.23,1.77-3.35,2.64c-0.04,0.04-0.08,0.06-0.12,0.08c-0.08,0.01-0.16,0.02-0.24,0.01c0.01-0.09,0-0.2,0.04-0.27
		c0.69-0.91,1.15-1.92,1.4-3.03c0.06-0.19,0.13-0.37,0.23-0.54c0.37-0.85,0.75-1.71,1.12-2.56c0.57-1.26,0.65-2.55,0.23-3.86
		c-0.16-0.53-0.15-1.07,0.02-1.6c0.24-0.81,0.57-1.56,1.16-2.19c0.13-0.14,0.31-0.28,0.35-0.45c0.13-0.52,0.52-0.82,0.91-1.12
		c0.16-0.12,0.37-0.21,0.45-0.37c0.38-0.68,0.72-1.38,1.02-2.11c0.23-0.59,0.27-1.25,0.5-1.84c0.52-1.31,0.47-2.64,0.02-3.9
		c-0.29-0.83-0.44-1.69-0.46-2.57c0-0.34-0.16-0.7-0.09-1.01c0.32-1.38,0.66-2.75,1.36-4c0.2-0.34,0.43-0.65,0.71-0.92
		c1.25-1.26,2.93-1.72,4.52-2.34c0.61-0.24,1.16-0.09,1.66,0.29c0.55,0.4,1.07,0.85,1.64,1.22c0.79,0.52,1.62,0.91,2.62,0.57
		c0.38-0.12,0.76-0.19,1.15-0.21c0.22-0.02,0.54,0.01,0.67,0.16c0.49,0.52,1.15,0.73,1.73,1.09c0.76,0.46,1.57,0.78,2.44,0.94
		c0.87,0.17,1.74,0.17,2.61,0.02c2.24-0.37,3.08-0.54,4.22-2.64c0.14-0.26,0.41-0.47,0.49-0.73c0.18-0.62,0.65-0.95,1.13-1.28
		c0.89-0.61,1.75-1.25,2.35-2.17c0.16-0.24,0.42-0.41,0.62-0.62c0.27-0.31,0.62-0.47,1.03-0.48c2.04-0.14,3.73-1.11,5.28-2.36
		c0.65-0.52,1.22-1.12,1.72-1.78c0.83-1.1,1.6-2.23,2.31-3.41c0.72-1.21,1.75-2.09,2.83-2.94c0.87-0.68,1.81-0.65,2.78-0.34
		c0.23,0.07,0.43,0.24,0.66,0.32c0.64,0.22,0.93,0.65,0.96,1.32c0,0.22,0.15,0.45,0.25,0.66c0.02,0.03,0.23,0.02,0.23,0
		c0.12-0.47,0.41-0.98,0.3-1.4c-0.24-0.91,0.09-1.62,0.48-2.37c1.44-2.78,2.87-5.58,4.3-8.37c0.6-1.16,0.73-2.33,0.09-3.52
		c-0.34-0.66-0.55-1.36-0.62-2.11c-0.07-0.63-0.27-1.24-0.42-1.86c-0.41-1.68-1.29-2.9-3.06-3.42c-0.96-0.28-1.89-0.51-2.89-0.39
		c-0.39,0.05-0.78,0.14-1.16,0.2c-0.48,0.08-0.97,0.18-1.45,0.21c-0.21,0.02-0.39-0.04-0.55-0.18c-0.16-0.14-0.24-0.32-0.24-0.53
		c0.01-0.54,0.06-1.07,0.17-1.6c0.24-1.15,0.56-2.28,0.56-3.47c0-0.29,0.01-0.63-0.13-0.86c-0.51-0.79-1.09-1.52-2.14-1.64
		c-0.39-0.05-0.83-0.06-1.13-0.27c-0.82-0.57-1.71-0.52-2.55-0.31c-1.14,0.27-2.33,0.39-3.36,1.03c-0.23,0.14-0.44,0.08-0.64-0.14
		c-0.68-0.75-1.28-1.58-2.45-1.67c-0.34-0.03-0.67-0.38-0.97-0.62c-0.25-0.24-0.48-0.49-0.7-0.75c-0.69-0.73-1.52-1.24-2.47-1.54
		c-0.59-0.19-1.21-0.18-1.66,0.28s-0.78,1.02-0.78,1.7c0.01,0.1,0.04,0.19,0.08,0.27c0.06-0.07,0.11-0.14,0.16-0.22
		c0.18-0.35,0.36-0.7,0.53-1.05c0.21-0.42,0.58-0.52,1-0.43c0.28,0.07,0.55,0.18,0.8,0.33c0.81,0.49,1.49,1.13,2.03,1.91
		c0.49,0.68,1.06,1.11,1.89,1.26c0.65,0.12,1.19,0.44,1.6,0.97c0.31,0.36,0.35,0.59,0.03,0.89c-1.26,1.19-2.26,2.58-3.2,4.01
		c-0.35,0.53-0.65,1.1-1.06,1.56c-0.63,0.71-1.07,1.53-1.52,2.34c-0.26,0.47-0.5,0.95-0.77,1.42c-0.2,0.33-0.43,0.63-0.66,0.94
		c-0.01,0.02-0.13,0-0.13,0c-0.04-0.39-0.07-0.78-0.12-1.16c-0.06-0.24-0.1-0.48-0.13-0.72c0-0.68-0.09-1.4,0.08-2.04
		c0.4-1.51,0.82-3.02,1.09-4.57c0.18-1.04-0.13-1.93-0.65-2.77c-0.36-0.58-0.7-1.21-1.19-1.67c-0.56-0.52-0.76-1.24-1.2-1.81
		c-0.49-0.64-1.01-1.17-1.76-1.45c-0.64-0.24-0.95-0.65-0.93-1.33c0.02-0.2,0.02-0.39,0-0.59c-0.16-1.05-0.16-2.15-0.98-3.01
		c-0.56-0.58-1.26-0.9-1.97-0.69c-1.07,0.32-2.13,0.73-3.07,1.37c-0.89,0.61-1.75,1.25-2.64,1.86c-0.19,0.13-0.51,0.29-0.67,0.22
		c-0.68-0.31-1.24,0.07-1.85,0.21c-0.29,0.07-0.57,0.1-0.86-0.06c-1.14-0.66-2.28-1.33-3.45-1.95c-0.43-0.24-0.9-0.39-1.38-0.46
		c-0.6-0.07-1.13-0.2-1.61-0.62c-0.21-0.19-0.45-0.31-0.72-0.36c-0.27-0.06-0.54-0.04-0.8,0.05c-0.13,0.04-0.33,0.16-0.33,0.25
		c0,0.34,0.24,0.16,0.39,0.12c0.51-0.14,0.86,0.05,1.1,0.5c0.22,0.43,0.57,0.67,1.04,0.73c1.08,0.2,2.01,0.78,2.99,1.21
		c0.76,0.33,1.45,0.85,2.29,0.99c0.04,0,0.08,0.05,0.12,0.08c-0.05,0.08-0.1,0.15-0.17,0.2c-0.58,0.37-1.16,0.74-1.74,1.09
		c-0.52,0.31-2.4,2.06-2.75,2.63c-1.43,2.3-2.66,4.69-3.47,7.28c-0.03,0.11-0.01,0.34-0.24,0.2c-0.08-0.07-0.12-0.16-0.12-0.26
		c-0.02-0.43-0.08-0.88-0.02-1.3c0.2-1.36,0.34-2.73,0.69-4.05c0.27-1.04,0.18-2.02,0.1-3.04c-0.05-0.62-0.37-1.11-0.51-1.68
		c-0.38-1.56-1.45-2.75-2.33-4.02c-0.28-0.41-0.76-0.68-1.29-0.9c-0.68-0.27-1.37-0.48-2.06-0.7c-0.61-0.21-1.23-0.27-1.87-0.18
		c-0.64,0.09-1.22,0.32-1.75,0.68c-0.08,0.05-0.14,0.14-0.21,0.2c-0.48,0.34-0.95,0.69-1.44,1.03c-0.76,0.53-1.52,0.64-2.29,0.02
		c-0.34-0.28-0.7-0.54-1.04-0.82c-1.35-1.07-2.84-1.76-4.6-1.55c-0.52,0.06-0.91,0.03-1.29-0.41c-0.38-0.44-0.59-0.39-1.03-0.09
		c-0.8,0.57-1.63,1.1-2.37,1.74c-0.62,0.54-1.25,1.13-1.24,2.08l0.02-0.02c0.92-1.21,2.24-1.87,3.5-2.61
		c0.28-0.16,0.55-0.19,0.8,0.05c0.35,0.34,0.72,0.36,1.21,0.25c1.12-0.25,2.11,0.25,3.08,0.71c0.53,0.27,1.03,0.57,1.51,0.91
		c0.35,0.23,0.85,0.3,0.98,0.8c-0.28,0.25-0.59,0.49-0.85,0.77c-0.47,0.5-0.96,0.97-0.98,1.74c-0.01,0.33-0.17,0.66-0.28,0.98
		c-0.19,0.56-0.42,1.07-0.98,1.41c-0.41,0.25-0.79,0.57-0.92,1.11c-0.01,0.11-0.08,0.18-0.19,0.2c-0.11,0.02-0.2-0.02-0.25-0.12
		c-0.31-0.44-0.58-0.92-0.92-1.33c-0.62-0.76-1.23-1.54-1.95-2.2c-0.64-0.6-1.48-0.94-2.34-1.17c-0.28-0.07-0.57-0.13-0.85-0.21
		c-0.51-0.16-0.68-0.51-0.59-1.02c0.01-0.1,0.02-0.2,0.02-0.29c-0.11,0.15-0.21,0.3-0.29,0.47c-0.23,0.59-0.27,0.66-0.8,0.6
		c-0.63-0.08-1.27-0.08-1.9,0c-0.45,0.06-0.88-0.01-1.29-0.21c-0.9-0.4-1.86-0.58-2.84-0.72c-1.71-0.25-3.31,0.09-4.83,0.86
		c-1.32,0.67-2.48,1.55-3.65,2.45c-1.62,1.26-3.17,2.6-4.79,3.87c-0.79,1.15-2.09,1.61-3.21,2.25c-1.04,0.6-2.26,0.93-3.44,1.22
		c-0.97,0.24-1.89,0.52-2.67,1.14c-0.88,0.7-1.81,1.38-2.39,2.36c-0.8,1.35-1.44,2.77-1.67,4.37c-0.11,0.78-0.32,1.53-0.65,2.25
		c-0.74,1.62-1.13,3.34-1.6,5.03c-0.2,0.74-0.18,1.55-0.23,2.33c0.01,0.15,0.08,0.27,0.2,0.36c0.05,0.04,0.26-0.07,0.33-0.16
		c0.28-0.41,0.45-0.87,0.5-1.36c0.09-0.83,0.26-1.64,0.52-2.44c0.42-1.2,0.99-2.34,1.46-3.52c0.37-0.91,0.7-1.83,0.97-2.77
		c0.45-1.62,1.2-3.1,2.25-4.42c0.11-0.16,0.24-0.3,0.4-0.42c0.81-0.47,1.57-0.99,2.49-1.23c1.14-0.28,2.25-0.63,3.35-1.04
		c1.69-0.68,3.23-1.6,4.64-2.76c0.26-0.21,0.43-0.54,0.69-0.75c1.03-0.82,2.23-1.41,3.17-2.34c0.11-0.1,0.24-0.17,0.38-0.21
		c0.92-0.29,1.58-0.93,2.27-1.56c0.64-0.59,1.24-1.2,2.01-1.67c1.95-1.2,3.97-1.23,6.09-0.7c0.1,0.02,0.19,0.05,0.27,0.1
		c0.04,0.03,0.07,0.17,0.04,0.2c-0.31,0.3-0.7,0.55-0.97,0.89c-0.84,1.07-1.9,1.81-3.19,2.23c-1.09,0.38-1.7,1.3-2.2,2.25
		c-0.36,0.68-0.45,1.5-0.83,2.17c-0.38,0.67-0.5,1.52-1.39,1.77c-1.09,0.98-2.22,1.93-2.88,3.3c-0.61,1.26-1.09,2.51-0.3,3.88
		c0.11,0.19-0.11,0.25-0.25,0.23c-0.29-0.04-0.57-0.14-0.86-0.17c-0.38-0.04-0.8-0.14-1.15-0.04c-0.71,0.19-1.4,0.44-2.06,0.75
		c-0.82,0.37-1.36,1.09-2,1.7c-1.54,1.48-2.77,3.17-3.69,5.09c-0.15,0.34-0.39,0.62-0.7,0.83c-0.31,0.21-0.66,0.32-1.03,0.33
		c-0.83,0.05-1.66,0.08-2.48,0.16c-2.45,0.23-3.69,1.35-4.61,3.49c-0.44,1.03-0.82,2.09-1.48,3.03c-0.75,1.08-1.5,2.17-1.92,3.46
		c-0.41,1.24-0.34,2.45,0.37,3.51c0.65,0.98,1.2,2.02,1.66,3.11c0.25,0.56,0.64,0.98,1.19,1.26c0.53,0.26,1.07,0.49,1.63,0.68
		c1.61,0.59,3.25,1.11,4.84,1.76c0.95,0.39,1.83,0.95,2.73,1.44c0.08,0.04,0.21,0.18,0.2,0.2c-0.08,0.12-0.17,0.22-0.27,0.31
		c-0.04,0.03-0.09,0.04-0.14,0.05c-1.59,0.59-3.02,1.37-3.71,3.07c-0.1,0.26-0.26,0.48-0.48,0.65c-0.22,0.17-0.46,0.28-0.74,0.32
		c-0.23,0.03-0.34,0.13-0.31,0.38c0,0.09-0.02,0.24-0.07,0.27c-0.52,0.25-1.04,0.59-1.59,0.69c-1.07,0.18-1.81,0.96-2.76,1.33
		c-0.16,0.06-0.26,0.28-0.37,0.44c-0.66,0.97-1.34,1.93-1.97,2.93c-0.4,0.59-0.57,1.24-0.52,1.95c-0.17,0.08-0.33,0.18-0.48,0.29
		c-0.47,0.41-0.49,0.71-0.06,1.09c0.66,0.59,1.35,1.14,2.07,1.66c1.14,0.78,2.11,1.74,3.09,2.7c0.73,0.72,1.72,1.11,2.44,1.85
		c0.19,0.19,0.53,0.23,0.81,0.33c0.19,0.05,0.38,0.11,0.56,0.18c1.24,0.65,2.34,1.61,3.81,1.77c0.14,0.04,0.28,0.1,0.4,0.18
		c0.4,0.18,0.8,0.37,1.21,0.53c1.57,0.65,3.3,0.89,4.81,1.72c0.05,0.02,0.09,0.03,0.14,0.04c0.55,0.19,1.11,0.39,1.66,0.58
		c0.55,0.2,1.1,0.38,1.64,0.59c0.97,0.36,1.99,0.45,2.99,0.62c1.34,0.24,2.72,0.19,4.06,0.47c1.07-0.24,2.12,0.04,3.18,0.08
		c0.58,0.02,1.17-0.2,1.74-0.13c1.55,0.18,3.13-0.3,4.68,0.1c0.27,0.07,0.59,0,0.88-0.02c1.51-0.16,3.02-0.33,4.53-0.49
		c0.11-0.01,0.25,0.11,0.35,0.2c0.04,0.04,0,0.2-0.05,0.26c-1.03,1.24-2.09,2.46-3.1,3.71c-0.58,0.72-1.13,1.47-1.41,2.39
		c-0.18,0.56-0.44,1.09-0.76,1.59c-0.24,0.37-0.62,0.74-0.54,1.16c0.11,0.57-0.45,0.85-0.42,1.37c0.02,0.27-0.03,0.56-0.03,0.86
		c0.02,0.85,0.25,1.65,0.49,2.45c0.11,0.39,0.16,0.77-0.12,1.12c-0.09,0.11-0.23,0.26-0.21,0.38c0.11,0.84-0.38,0.99-1.05,1.02
		c-0.44,0.02-0.87,0.12-1.31,0.16c-1.65,0.14-3.31,0.31-4.97,0.38c-0.83,0.04-1.65,0.21-2.47,0.17c-1.85-0.08-3.71,0.03-5.56-0.07
		c-1.31-0.07-2.62-0.1-3.92-0.39c-0.87-0.19-1.76-0.28-2.63-0.09c-0.82,0.18-1.64-0.16-2.45,0.11c-0.16,0.05-0.38-0.06-0.57-0.12
		c-0.51-0.18-1.01-0.39-1.52-0.54c-0.41-0.14-0.84-0.21-1.28-0.2c-0.61,0.03-1.28-0.06-1.79-0.51s-1.09-0.86-1.53-1.38
		c-0.57-0.66-1.3-1.02-2.07-1.35c-1.07-0.45-2.2-0.76-3.14-1.48c-0.62-0.47-1.34-0.83-1.85-1.39c-0.56-0.62-1.14-1.2-1.72-1.79
		c-0.43-0.41-0.81-0.85-1.16-1.33c-1.04-1.52-2.26-2.81-3.9-3.71c-0.67-0.37-1.35-0.89-1.76-1.52c-0.52-0.78-1.14-1.26-1.94-1.71
		c-1.02-0.58-1.97-1.31-2.17-2.63c-0.05-0.33-0.28-0.62-0.42-0.93c-0.21-0.45-0.47-0.87-0.61-1.34c-0.27-0.91-0.62-1.72-1.36-2.38
		c-0.56-0.5-0.86-1.2-0.6-2.01c0.19-0.58,0.07-1.17-0.05-1.74c-0.25-1.05-0.3-2.11-0.16-3.18c0.14-1.09-0.01-2.13-0.72-3.07
		c-0.28-0.35-0.46-0.74-0.54-1.19c-0.08-0.44-0.04-0.87,0.12-1.3c0.06-0.14,0.09-0.28,0.11-0.42c-0.01-0.09-0.04-0.18-0.08-0.27
		c-0.12,0.06-0.24,0.11-0.35,0.18c-0.04,0.02-0.05,0.08-0.07,0.13c-0.59,1.09-0.48,2.22,0.02,3.26c0.35,0.73,0.35,1.41,0.19,2.13
		c-0.26,1.2-0.38,2.41-0.35,3.63c0.02,0.82,0.11,1.65,0.13,2.47c0.02,0.92,0.41,1.86,1.4,2.24c0.61,0.24,1.03,0.49,1.08,1.21
		c0.02,0.26,0.28,0.51,0.41,0.78c0.43,0.88,0.91,1.75,1.05,2.74c0.21,1.46,1.05,2.35,2.37,2.92c0.62,0.26,1.22,0.61,1.44,1.37
		c0.17,0.59,0.66,0.96,1.17,1.27c1.53,0.91,2.85,2.04,3.83,3.54c0.24,0.37,0.51,0.72,0.8,1.05c1.71,1.91,3.75,3.43,5.74,5
		c0.15,0.13,0.33,0.21,0.52,0.25c0.41,0.05,0.72,0.27,1.09,0.43c0.36,0.16,0.75,0.16,1.13,0.21c0.45,0.07,0.83,0.27,1.14,0.61
		c0.51,0.52,1.03,1.05,1.59,1.52c1.17,1,1.18,0.99,2.77,1.05c0.25-0.01,0.49,0.01,0.74,0.04c0.29,0.05,0.56,0.14,0.82,0.27
		c1.1,0.65,2.28,0.86,3.54,0.64c0.88-0.16,1.76-0.17,2.64-0.03c0.87,0.16,1.73,0.15,2.6,0.22c0.87,0.06,1.74,0.05,2.61-0.01
		c1.61-0.09,3.23-0.04,4.85-0.14c1.37-0.08,2.74-0.01,4.11-0.18c1.26-0.16,2.53-0.29,3.79-0.42c0.34-0.04,0.69-0.05,1.03-0.04
		c0.7,0.02,0.83,0.11,0.97,0.83c0.17,0.82,0.37,1.66,0.87,2.32c0.58,0.73,1.23,1.39,1.96,1.98c0.95,0.79,1.77,1.62,2.3,2.79
		c0.5,1.1,1.51,1.99,3.08,1.76c0.24-0.03,0.49-0.02,0.73-0.03c0.97-0.03,1.81-0.38,2.51-1.06c0.4-0.35,0.79-0.73,1.15-1.13
		c0.62-0.74,1.33-1.41,1.59-2.42c0.18-0.66,0.45-1.29,0.81-1.88c0.66-1.09,1.43-2.1,2.11-3.17c0.36-0.57,0.75-1.13,0.83-1.85
		c0.04-0.37,0.27-0.73,0.45-1.09c0.34-0.66,0.76-1.27,1.04-1.95c0.45-1.12,1.19-2.02,2.04-2.83c0.37-0.35,0.56-0.95,1.22-0.93
		c0.08,0.48,0.28,0.97,0.22,1.43c-0.11,0.81,0.09,1.55,0.23,2.31c0.02,0.15,0.04,0.29,0.04,0.44c0.05,2.15,0.09,4.31,0.14,6.46
		c0.01,0.54-0.06,1.1,0.06,1.61c0.1,0.53,0.15,1.06,0.13,1.6c0.01,0.58,0.2,1.16,0.18,1.73c-0.07,1.57,0.33,3.09,0.29,4.66
		c-0.03,1.21,0.24,2.43,0.36,3.64c0.06,0.62,0.2,1.27,0.13,1.88c-0.07,0.44-0.06,0.87,0.03,1.31c0.27,1.12,0.16,2.25,0.18,3.38
		c0.01,0.69,0,1.37,0.01,2.06c0.05,2.29,0.1,4.59,0.18,6.88c0.02,0.63-0.11,1.24-0.08,1.89c0.09,1.6,0.23,3.21,0.08,4.82
		c-0.03,0.34-0.04,0.67-0.02,1.01c0.1,1.71,0.37,3.42,0.24,5.14c-0.06,0.72,0.08,1.45-0.06,2.19c-0.07,0.37,0.04,0.78,0.05,1.17
		c0.02,0.68,0.14,1.38,0,2.03c-0.16,0.67-0.19,1.35-0.11,2.03c0.05,0.38-0.05,0.78-0.08,1.16c-0.06,0.78-0.11,1.55-0.18,2.33
		c-0.19,2.1-0.04,4.2-0.26,6.3c-0.08,0.59-0.07,1.18,0.03,1.76c0.19,1.03,0.13,2.05,0.09,3.08c-0.02,0.62-0.06,1.24-0.05,1.85h2.03
		c-0.13-0.79-0.09-1.6-0.11-2.39c-0.03-0.91-0.31-1.85,0.1-2.75c0.03-0.1,0.03-0.19,0-0.29c-0.18-1.2-0.05-2.41-0.11-3.62
		c-0.02-0.25-0.01-0.49,0.04-0.73c0.32-1.2,0.33-2.42,0.2-3.64c0-0.19,0.02-0.38,0.06-0.57c0.04-0.29,0.17-0.59,0.12-0.86
		c-0.15-0.79,0.01-1.55,0.06-2.33c0.1-1.71,0.22-3.43,0.18-5.15c-0.02-0.71,0.04-1.43-0.07-2.14c-0.12-0.78-0.09-1.54-0.07-2.31
		c0.01-0.63-0.1-1.27-0.1-1.9c0-1.36-0.24-2.72-0.01-4.09c0.03-0.15,0.02-0.29-0.03-0.44c-0.26-0.82-0.13-1.66-0.13-2.48
		s-0.06-1.65-0.06-2.47c0-1.22,0-2.44,0.03-3.66c0.02-0.77-0.27-1.54,0.06-2.31c0.08-0.2-0.05-0.48-0.07-0.72
		c-0.06-0.39-0.09-0.78-0.1-1.17c0.05-1.67-0.21-3.32-0.25-4.99c0-0.39,0.12-0.81,0-1.16c-0.34-1.04-0.38-2.1-0.39-3.18
		c0-1.08-0.05-2.15-0.18-3.22c-0.13-1.02-0.2-2.03-0.28-3.05c-0.11-1.41-0.05-2.85-0.36-4.24c-0.19-0.83-0.19-1.65-0.17-2.48
		c0.01-0.64,0-1.28-0.01-1.92c-0.02-1.02-0.05-2.05-0.07-3.07c0.01-0.1,0.02-0.19,0.05-0.29c0.07,0.02,0.16,0.01,0.19,0.05
		c0.11,0.16,0.19,0.43,0.31,0.45c0.21,0.03,0.45-0.08,0.67-0.16c0.27-0.1,0.54-0.22,0.81-0.34c0.39-0.19,0.43-0.4,0.26-0.92
		c-0.07-0.18-0.07-0.35,0-0.53c0.29-0.51,0.64-0.98,0.94-1.49c0.16-0.26,0.24-0.57-0.05-0.8c-0.19-0.16-0.22-0.27-0.07-0.47
		c0.21-0.27,0.38-0.56,0.58-0.84c0.05-0.07,0.12-0.14,0.18-0.21c0.04,0.07,0.1,0.15,0.11,0.22c0.05,0.83,0.09,1.66,0.11,2.49
		c0.02,0.49,0.09,0.99-0.02,1.46c-0.32,1.44-0.25,2.91-0.31,4.36c-0.05,1.16-0.12,2.33-0.06,3.5c0.1,2.04,0.05,4.09,0.32,6.13
		c0.04,0.19,0.07,0.38,0.08,0.58c-0.07,1.66,0.12,3.31,0.37,4.95c0.05,0.29,0.1,0.58,0.13,0.88c0.08,0.83,0.14,1.65,0.22,2.48
		c0.08,0.86-0.01,1.75,0.19,2.59c0.23,0.93,0.14,1.85,0.19,2.77c0.05,0.88,0.14,1.75,0.2,2.64c0.05,0.68,0.07,1.37,0.1,2.05
		c0.02,0.59,0.07,1.18,0.05,1.76c-0.03,1.09-0.07,2.16,0.22,3.22c0.06,0.19,0.08,0.38,0.07,0.57c-0.11,1.21-0.03,2.42,0.05,3.63
		c0.03,0.39,0.08,0.78,0.08,1.16c0,1.07-0.03,2.13-0.06,3.2c-0.02,0.68-0.04,1.36-0.05,2.05c-0.05,2.45-0.11,4.91-0.16,7.36
		c-0.01,0.78,0.1,1.58,0,2.34c-0.08,0.6,0,1.16,0.02,1.74s-0.16,1.16-0.26,1.73c-0.01,0.1-0.01,0.2,0,0.29
		c0,0.88,0.01,1.75-0.02,2.63c-0.08,1.79-0.21,3.59-0.01,5.38c0.04,0.34-0.04,0.68-0.07,1.03c-0.04,0.24-0.06,0.48-0.07,0.73
		c0.01,0.73,0.06,1.47,0.07,2.2c0,0.26-0.01,0.52-0.02,0.78h1.57c0.07-1.16-0.1-2.33-0.1-3.49c0-1.36-0.01-2.73,0.03-4.1
		c0.08-2.5,0.25-4.99,0.34-7.49c0.08-2.4,0.09-4.81,0.12-7.21c0.01-0.93-0.14-1.87,0-2.78c0.22-1.46,0-2.91,0.13-4.36
		c0.08-0.88-0.1-1.75-0.05-2.62c0.04-0.68-0.03-1.37-0.06-2.05c-0.03-0.68,0.06-1.34,0-2.02c-0.12-1.21-0.17-2.43-0.16-3.65
		c0.04-1.41-0.08-2.83-0.16-4.25c-0.06-0.93,0.05-1.86-0.07-2.77c-0.17-1.31-0.34-2.62-0.42-3.94c-0.09-1.61-0.23-3.21-0.38-4.81
		c-0.11-1.17-0.2-2.34-0.4-3.49c-0.15-0.82-0.24-1.64-0.25-2.48c0-1.8,0.01-3.6,0-5.4c0.02-0.74-0.01-1.47-0.09-2.2
		c-0.16-1.08-0.34-2.14,0.08-3.19c0.03-0.09,0.04-0.19,0.02-0.29c-0.32-1.27,0-2.55-0.03-3.82c0.01-0.39,0.05-0.78,0.12-1.17
		c0.06-0.48,0.16-0.96,0.2-1.45c0.07-0.73,0.07-1.47,0.16-2.2c0.12-0.95,0.61-1.58,1.57-1.91c1.58-0.55,3.14-1.12,4.78-1.42
		c0.48-0.11,0.95-0.26,1.4-0.45c1.24-0.48,2.52-0.74,3.85-0.78c0.62-0.02,1.25-0.21,1.86-0.37c0.99-0.28,1.94-0.66,2.86-1.13
		c0.26-0.14,0.54-0.24,0.82-0.31c0.79-0.13,1.5-0.44,2.15-0.91c0.25-0.19,0.46-0.02,0.67,0.08c0.24-0.24,0.44-0.54,0.72-0.7
		c1.14-0.66,2.29-1.33,3.48-1.9c0.74-0.37,1.46-0.8,2.14-1.28c1.1-0.73,2.23-1.41,3.31-2.16c0.72-0.5,1.31-1.17,2.07-1.61
		c0.24-0.15,0.47-0.32,0.7-0.5c0.37-0.24,0.71-0.51,1.04-0.8c1.11-1.09,2.2-2.21,3.29-3.33c0.13-0.15,0.24-0.3,0.34-0.47
		c0.23-0.31,0.4-0.71,0.7-0.93c0.43-0.34,0.75-0.76,0.96-1.28c0.25-0.56,0.64-0.98,1.19-1.25c1.33-0.73,2.65-1.49,3.98-2.23
		c0.55-0.31,1.09-0.67,1.65-0.93c0.57-0.26,1.15-0.48,1.71-0.79c1.63-0.91,3.09-2.06,4.61-3.13c0.15-0.13,0.3-0.26,0.47-0.37
		c1.34-0.69,2.03-1.91,2.76-3.15c0.6-1.02,1.44-1.86,2.58-2.3c1.1-0.42,2.21-0.81,3.15-1.55c0.28-0.22,0.6-0.23,0.97-0.08
		c1.07,0.42,1.95,1.09,2.77,1.87c2.17,2.05,3.94,4.47,5.93,6.69c0.29,0.32,0.45,0.75,0.67,1.13c0.41,0.72,0.8,1.46,1.24,2.15
		c0.53,0.78,1.19,1.44,1.97,1.97c0.47,0.33,0.65,0.69,0.56,1.35c-0.1,0.79-0.09,1.66,0.39,2.4c0.08,0.12,0.11,0.33,0.21,0.38
		c0.9,0.36,0.7,1.32,1.1,1.95c0.11,0.17,0.17,0.36,0.15,0.57c-0.01,0.21-0.08,0.39-0.22,0.55c-0.88,1.02-1.27,2.31-1.99,3.42
		c-0.24,0.36-0.36,0.83-0.88,0.92c-0.06,0.01-0.12,0.13-0.16,0.21c-0.74,1.65-1.36,2.36-2.5,3.48c-0.96,0.95-2.11,1.76-2.72,3.03
		c-0.23,0.47-0.59,0.78-1.09,0.93c-0.23,0.08-0.45,0.21-0.68,0.29c-0.59,0.21-1.03,0.56-1.23,1.17c-0.06,0.14-0.13,0.26-0.21,0.39
		c-0.22,0.41-0.6,0.51-1.01,0.43c-0.67-0.13-1.34-0.29-1.99-0.47c-0.04-0.01-0.06-0.25-0.02-0.35c0.09-0.2,0.2-0.38-0.16-0.36
		c-0.05,0.01-0.09,0.02-0.14,0.04c-0.34,0.17-0.69,0.24-1.07,0.22c-0.38-0.02-0.72-0.14-1.03-0.35c-1.33-0.86-2.68-0.49-3.93,0.06
		c-0.82,0.36-1.66,0.53-2.51,0.73c-0.91,0.21-1.82,0.37-2.62,0.88c-0.12,0.07-0.26,0.12-0.4,0.13c-0.96,0.13-1.71,0.7-2.48,1.21
		c-0.62,0.41-1.22,0.82-1.86,1.18c-0.23,0.15-0.48,0.22-0.76,0.21c-0.28-0.01-0.52-0.11-0.74-0.28c-1-0.7-2.08-1.24-3.36-1.37
		c-0.94-0.08-1.68-0.5-2.23-1.26c-0.17-0.23-0.43-0.39-0.65-0.59c-0.3-0.25-0.58-0.52-0.84-0.8c-0.43-0.52-0.7-1.18-1.55-1.18
		c-0.18,0-0.34-0.35-0.54-0.47c-0.43-0.24-0.86-0.53-1.33-0.6c-0.56-0.09-1.2,0.15-1.73-0.01c-0.51-0.14-1.03-0.2-1.56-0.16
		c-1.17,0.06-2.34-0.01-3.52,0c-0.73,0-1.47,0.03-2.2,0.08c-1.4,0.1-2.73-0.23-4.08-0.5c0.13,0.43,0.47,0.62,0.85,0.73
		c1.23,0.34,2.45,0.7,3.69,0.98c0.95,0.22,1.93,0.29,2.88,0.49c0.86,0.18,1.71,0.45,2.55,0.7c2.18,0.65,4.17,1.66,5.87,3.22
		c0.53,0.49,1.14,0.98,1.8,1.23c1.06,0.4,2.04,0.95,3.05,1.43c0.22,0.12,0.45,0.2,0.69,0.24c1.17,0.11,2.33,0.31,3.51,0.17
		c0.09-0.01,0.17-0.03,0.25-0.06c-0.16-0.75,0.52-0.69,0.88-0.85c0.71-0.31,1.5-0.48,2.22-0.78c1.33-0.53,2.75-0.71,4.1-1.13
		c1.17-0.38,2.35-0.7,3.55-0.96c0.61-0.12,1.16-0.49,1.74-0.74c0.42-0.73,0.99-0.6,1.65-0.36c1.06,0.39,2.17,0.53,3.3,0.64
		c1.05,0.1,1.82-0.16,2.2-1.22c0.19-0.55,0.59-0.83,1.21-0.91c0.95-0.13,1.71-0.62,2.35-1.38c0.5-0.59,1.07-1.18,1.73-1.57
		c1.07-0.62,1.66-1.66,2.41-2.54c0.82-0.96,1.43-2.11,2.22-3.11c0.48-0.62,0.88-1.29,1.22-1.99c0.37-0.73,0.55-1.58,1.31-2.08
		c0.13-0.08,0.19-0.35,0.18-0.53C269.76,132.6,269.88,131.99,269.33,131.54z"/>
	<path class="st0" d="M197.43,280.37c-0.09,1.31,0.08,2.64,0,3.95c-0.03,0.51,0.12,0.96,0.11,1.45c-0.07,2-0.13,4.01-0.17,6.01
		c-0.04,1.32,0,2.64,0.11,3.96c0.16,1.6-0.11,3.22,0.02,4.84c0.09,1.1,0.29,2.21,0.14,3.33c-0.08,0.62,0.08,1.27,0.11,1.9
		c0.08,1.75,0,3.53,0.27,5.25c0.26,1.61,0.24,3.22,0.47,4.83c0.26,1.84,0.32,3.7,0.48,5.55c0.06,0.72,0.33,1.19,0.56,1.03
		c0.39-0.26,0.36-0.7,0.35-1.06c-0.04-1.51-0.12-3.02-0.21-4.53c-0.07-1.22-0.24-2.44-0.27-3.66c-0.03-1.41,0-2.82-0.09-4.24
		s-0.03-2.84-0.05-4.26c-0.01-0.62,0.05-1.28-0.04-1.88c-0.14-0.93-0.04-1.86-0.07-2.79s-0.03-1.84-0.03-2.77
		c0-1.31,0.01-2.63,0.01-3.94c0-0.87-0.27-1.75,0.05-2.62c0.02-0.15,0.02-0.29,0-0.44c0-0.53-0.25-1.01-0.09-1.59
		c0.14-0.54-0.03-1.16-0.02-1.74c0.06-2.16,0.14-4.32,0.21-6.48c0.03-1.14,0.1-2.29,0.06-3.43h-1.94
		C197.41,278.15,197.5,279.26,197.43,280.37z"/>
	<path class="st0" d="M222.1,183.9c0.24-0.73,0.21-1.55,0.35-2.31c0.22-1.19,0.89-2.16,1.58-3.12c0.43-0.59,0.91-1.14,1.45-1.64
		c1.98-1.88,4.1-3.51,6.94-3.83c0.92-0.1,1.83-0.29,2.75-0.4c0.23-0.03,0.48,0.08,0.71,0.12v-0.07c1.12,0.02,2.24,0.06,3.36,0.06
		c1.32,0,2.6,0.32,3.9,0.49c0.09,0.01,0.18,0.1,0.28,0.1c1.82,0.07,3.37,0.93,4.99,1.62c1.32,0.56,2.45,1.38,3.39,2.46
		c0.68,0.76,1,1.68,1.19,2.65c0.1,0.52-0.07,0.93-0.54,1.26c-1.27,0.9-2.6,1.48-4.22,1.46c-2.79-0.03-5.59,0.04-8.38-0.01
		c-0.73-0.01-1.46,0.16-2.19,0.24c-0.04,0-0.08,0.05-0.12,0.07c0.02,0.04,0.05,0.08,0.09,0.12c0.04,0.03,0.08,0.05,0.13,0.06
		c0.5,0.23,1.03,0.33,1.58,0.31c1.52-0.09,3.03-0.18,4.55-0.28c0.44-0.02,0.88-0.04,1.32-0.06s0.9,0.03,1.32-0.07
		c0.79-0.19,1.54-0.24,2.31,0.05c0.17,0.06,0.38,0.01,0.57,0c0.59-0.02,1.18-0.06,1.76-0.04c0.15,0,0.29,0.02,0.43,0.08
		c0.14,0.06,0.26,0.14,0.36,0.25c0.1,0.11,0.18,0.23,0.23,0.37c0.05,0.14,0.07,0.29,0.06,0.44c-0.02,1.11-0.4,2.11-0.96,3.05
		c-0.6,0.99-1.4,1.77-2.4,2.34c-1.44,0.86-2.85,1.76-4.49,2.16c-1.18,0.29-2.4,0.46-3.6,0.65c-2.07,0.34-4.18,0.44-6.24,0.88
		c-0.56,0.12-1.18,0.06-1.76-0.01c-0.68-0.08-1.38-0.16-2.02-0.4c-1.46-0.55-2.97-0.97-4.35-1.76c-0.78-0.44-1.58-0.8-2.09-1.55
		c-0.36-0.52-0.65-1.09-0.95-1.65c-0.33-0.6-0.65-1.2-0.95-1.82C222.11,185.44,221.81,184.77,222.1,183.9z M200.38,227.09
		c0.04-0.78-0.05-1.57,0.24-2.33c-0.23-0.85,0.12-1.64,0.26-2.45c0.13-0.78,0.17-1.55,0.26-2.33c0.17-1.66,0.35-3.31,0.52-4.97
		c0.01-0.1,0.02-0.2,0.04-0.29c0.16-0.82,0.43-1.63,0.44-2.45c0.02-0.88,0.41-1.7,0.31-2.6c-0.05-0.46,0.13-0.95,0.26-1.41
		c0.48-1.69,0.51-3.49,1.31-5.1c0.18-1.17,0.67-2.25,1.02-3.37c0.09-0.38,0.21-0.75,0.36-1.11c0.49-1.01,1.05-1.98,1.53-2.99
		c0.8-1.68,1.65-3.33,2.93-4.71c0.07-0.07,0.13-0.14,0.18-0.23c0.32-0.91,1.08-1.5,1.64-2.24c1.52-1.97,3.43-3.49,5.54-4.76
		c0.79-0.47,1.7-0.75,2.56-1.09c0.15-0.02,0.28,0.03,0.38,0.14c0.09,0.12,0.11,0.26,0.07,0.41c-0.09,0.33-0.34,0.66-0.31,0.96
		c0.07,0.55-0.23,0.92-0.44,1.34c0.71-0.05,0.71-0.04,0.79,0.53c0,0.15,0.02,0.29,0.05,0.44c0.47,1.02,0.78,2.12,1.68,2.89
		c0.15,0.13,0.29,0.27,0.41,0.42c0.39,0.5,0.7,1.09,1.17,1.5s1.06,0.67,1.6,0.98c0.21,0.13,0.42,0.25,0.64,0.36
		c1.55,0.76,3.19,1.24,4.84,1.73c0.75,0.22,1.53,0.42,2.3,0.42c1.71,0,3.4-0.28,5.08-0.58c0.62-0.11,1.26-0.21,1.88-0.33
		c0.77-0.15,1.53-0.32,2.29-0.5c0.66-0.16,1.29-0.44,2.01-0.37c0.31,0.03,0.68-0.12,0.98-0.27c0.75-0.36,1.48-0.76,2.23-1.13
		c1.5-0.75,2.89-1.62,4.11-2.79c0.88-0.86,1.13-2.02,1.78-2.97c-0.16-0.64,0.39-1.09,0.44-1.67c0.05-0.59,0.22-1.15,0.35-1.72
		c0.25-1.1,0.16-2.24,0.13-3.37c-0.02-0.25-0.08-0.48-0.18-0.71c-0.72-2.03-2.12-3.51-3.87-4.68c-0.72-0.48-1.47-0.99-2.38-1.09
		c-0.33-0.03-0.16-0.52-0.58-0.49c-0.94,0.05-1.84-0.1-2.72-0.44c-1.49-0.54-3.1-0.36-4.63-0.74c-0.09-0.02-0.19,0.03-0.29,0.03
		c-0.29,0-0.58,0-0.86-0.02c-1.95-0.2-3.9-0.29-5.84,0.13c-0.23,0.05-0.49-0.02-0.72,0.02c-0.95,0.16-1.97,0.18-2.84,0.55
		c-1.62,0.69-3.17,1.55-4.43,2.83c-0.27,0.28-0.53,0.59-0.85,0.81c-0.82,0.54-1.25,1.36-1.65,2.2c-0.61,1.28-1.19,2.58-1.75,3.88
		c-0.22,0.52-0.61,0.8-1.11,0.83c-0.76,0.04-1.43,0.34-2.12,0.59c-0.65,0.24-1.29,0.47-1.93,0.74c-0.86,0.35-1.7,0.73-2.41,1.36
		c-0.4,0.35-0.91,0.57-1.37,0.86c-0.33,0.21-0.7,0.39-0.96,0.67c-0.5,0.54-0.97,1.1-1.4,1.7c-0.88,1.23-1.74,2.48-2.59,3.73
		c-0.13,0.21-0.24,0.43-0.33,0.65c-0.47,0.97-1.01,1.89-1.46,2.87c-0.37,0.8-0.74,1.59-1.03,2.43c-0.03,0.14-0.08,0.28-0.14,0.41
		c-0.84,1.3-1.14,2.79-1.62,4.23c-0.09,0.27-0.19,0.54-0.28,0.81c-0.07,0.18-0.12,0.36-0.14,0.56c-0.04,0.98-0.22,1.93-0.52,2.86
		c-0.13,0.47-0.23,0.95-0.29,1.44c-0.14,1.01-0.13,2.04-0.31,3.03c-0.18,0.99-0.33,2.01-0.44,3.01c-0.1,0.91-0.38,1.81-0.33,2.72
		c0.05,1-0.17,1.93-0.42,2.86c-0.05,0.19-0.08,0.38-0.09,0.58c-0.15,1.9-0.25,3.81-0.51,5.71c-0.24,1.8-0.11,3.63-0.42,5.43h1.72
		C200.23,229.97,200.32,228.53,200.38,227.09z"/>
	<path class="st0" d="M212.01,190.31c-0.58,0.61-1.14,1.18-1.45,2c-0.25,0.68-0.78,1.24-1.05,1.92c-0.54,1.26-1.15,2.48-1.83,3.67
		c-0.22,0.4-0.48,0.86-0.41,1.38c-0.01,0.14-0.06,0.28-0.13,0.4c-0.27,0.62-0.73,1.22-0.78,1.86c-0.07,0.75-0.34,1.42-0.54,2.11
		c-0.56,1.93-0.75,3.93-1.17,5.88c-0.48,2.19-0.72,4.43-1.06,6.65c-0.16,0.97-0.2,1.95-0.41,2.9c-0.44,1.96-0.5,3.97-0.74,5.95
		c-0.15,1.22-0.13,2.45-0.16,3.68c-0.01,0.9-0.13,1.8-0.18,2.7h1.39c0.08-0.65,0.18-1.3,0.03-1.96c-0.01-0.1,0-0.2,0.03-0.29
		c0.16-1.06,0.27-2.12,0.32-3.2c0.03-0.93,0.03-1.88,0.16-2.79s0.18-1.83,0.33-2.73c0.23-1.4,0.49-2.79,0.7-4.19
		c0.3-1.93,0.56-3.87,0.85-5.8c0.16-1.01,0.26-2.05,0.56-3.02c0.53-1.73,1.02-3.47,1.5-5.22c0.29-1.14,0.67-2.25,1.12-3.34
		c0.57-1.29,1.17-2.57,1.67-3.89c0.1-0.22,0.22-0.44,0.36-0.64c0.27-0.47,0.56-0.93,0.82-1.4c0.68-1.19,1.32-2.36,2.38-3.32
		c1.32-1.19,2.59-2.4,4.15-3.26c0.36-0.2,0.63-0.54,0.94-0.82c-0.49,0.16-1.01,0.28-1.46,0.52
		C215.79,187.2,213.72,188.51,212.01,190.31z"/>
	<path class="st0" d="M201.57,278.77c-0.04,1.03,0,2.06,0.02,3.09c0.02,1.61,0.07,3.23,0.08,4.84c0,0.74-0.1,1.48-0.03,2.21
		c0.13,1.31,0,2.61,0.06,3.92c0.1,2.15-0.13,4.3,0.02,6.47c0.14,2.04,0.02,4.1,0.11,6.16c0.11,2.4,0.19,4.8,0.35,7.19
		c0.13,1.91,0.11,3.82,0.21,5.73c0.03,0.68,0.21,1.35,0.34,2.02c0.01,0.07,0.14,0.14,0.22,0.16c0.09-0.02,0.15-0.07,0.18-0.16
		c0.05-0.78,0.11-1.57,0.13-2.35c0.06-2.4-0.2-4.8-0.07-7.21c0.08-1.51,0.06-3.02-0.07-4.53c-0.01-0.29,0-0.59,0.02-0.88
		c0.01-1.03,0.14-2.08,0-3.09c-0.14-1.08-0.1-2.14-0.06-3.2c0.07-1.66-0.07-3.32,0-4.98c0.06-1.35-0.04-2.73-0.03-4.1
		c0-0.92-0.08-1.85-0.03-2.77c0.07-1.17-0.12-2.34,0.02-3.5c0.05-0.44,0.06-0.87,0.03-1.31c-0.07-1.07-0.05-2.15-0.06-3.23
		c0-0.24,0.05-0.48,0.05-0.72c0.01-0.39,0.02-0.78,0-1.16c0-0.11-0.01-0.21-0.02-0.32h-1.5
		C201.58,277.62,201.6,278.19,201.57,278.77z"/>
	<polygon class="st0" points="219.43,185.54 219.48,185.53 219.49,185.51 219.47,185.51 	"/>
	<path class="st0" d="M107.77,124.83c0.74,0.79,1.5,1.56,2.22,2.36c0.69,0.77,1.52,1.38,2.28,2.06s1.67,1.01,2.48,1.55
		c1.36,0.91,2.91,1.37,4.41,1.96c0.28,0.1,0.57,0.15,0.86,0.17c0.43,0.04,0.76-0.19,1.02-0.49c0.04-0.12,0.03-0.24-0.05-0.34
		c-0.37-0.12-0.74-0.23-1.13-0.31c-0.38-0.08-0.82-0.05-1.15-0.23c-0.81-0.47-1.69-0.76-2.49-1.22c-0.97-0.56-1.9-1.21-2.86-1.79
		c-1.86-1.13-3.38-2.66-4.91-4.19c-0.35-0.35-0.61-0.77-0.77-1.24c-0.16-0.47-0.21-0.95-0.15-1.45c0.15-1.42,0.47-2.8,0.96-4.13
		c0.16-0.47,0.44-0.73,0.95-0.78c1.17-0.11,2.32-0.3,3.5-0.29c2.01,0.02,4.01,0.05,6.02,0.19c1.76,0.11,3.49,0.42,5.18,0.92
		c0.14,0.04,0.28,0.08,0.43,0.1c0.05,0,0.09-0.01,0.13-0.04c-0.01-0.07-0.01-0.17-0.06-0.2c-0.16-0.11-0.34-0.19-0.52-0.26
		c-2.78-0.83-5.61-1.41-8.51-1.54c-1.91-0.08-3.82-0.34-5.73,0.03c-0.63,0.12-0.96-0.16-0.94-0.79c0.05-1.34-0.3-2.62-0.55-3.91
		c-0.05-0.28-0.05-0.58-0.1-0.86c-0.12-0.71,0.14-1.33,0.36-1.98c0.34-1.01,0.59-2.04,1.19-2.97c0.42-0.65,0.66-1.49,0.52-2.24
		c-0.18-0.94,0.2-1.65,0.64-2.33c0.75-1.14,1.77-2.07,2.84-2.89c1.28-0.97,2.63-1.9,4.17-2.46c0.37-0.14,0.72-0.32,1.08-0.48
		c0.14-0.06,0.27-0.12,0.4-0.19c0.09-0.06,0.32-0.07,0.16-0.26c-0.08-0.05-0.18-0.07-0.27-0.04c-2.26,0.52-4.4,1.36-6.41,2.51
		c-1.25,0.73-2.47,1.55-3.37,2.78c-0.58,0.79-0.94,1.64-0.79,2.57c0.09,0.58,0.06,1.11-0.19,1.55c-0.38,0.68-0.44,1.5-0.95,2.11
		c-0.11,0.16-0.2,0.34-0.25,0.53c-0.7,1.94-0.72,3.9-0.19,5.9c0.22,0.91,0.37,1.82,0.46,2.75c0.03,0.4-0.01,0.78-0.11,1.17
		c-0.23,1.05-0.5,2.1-0.73,3.15c-0.13,0.57-0.21,1.15-0.31,1.71c0.07,0.58,0.2,1.11,0.19,1.64
		C106.7,123.57,107.19,124.22,107.77,124.83z"/>
	<path class="st0" d="M114.03,108.51c-0.49,0.04-0.96,0.14-1.43,0.28c-0.22,0.06-0.41,0.25-0.62,0.38c0.27,0.26,0.53,0.03,0.79-0.01
		c1.31-0.2,2.62-0.37,3.94-0.27c0.29,0.02,0.59,0.03,0.88,0.02c0.13-0.02,0.24-0.06,0.36-0.12c-0.13-0.06-0.27-0.1-0.41-0.12
		c-0.59-0.03-1.18-0.05-1.76-0.07c0-0.01,0-0.03,0-0.04C115.21,108.54,114.62,108.48,114.03,108.51z"/>
	<path class="st0" d="M125.69,139.1c0.32-0.05,0.65-0.1,0.97-0.16c-0.3-0.32-0.7-0.21-1.05-0.19c-0.62,0.04-1.23,0.17-1.85,0.26
		c-0.04,0.01-0.07,0.06-0.11,0.09c0.05,0.06,0.12,0.11,0.19,0.14c0.17,0.02,0.35,0.03,0.52,0.02
		C124.64,139.24,125.16,139.18,125.69,139.1z"/>
	<path class="st0" d="M114.98,136.95c-0.05,0.02-0.06,0.12-0.09,0.18c0.04,0.02,0.09,0.06,0.13,0.06c0.72-0.08,1.44-0.17,2.15-0.27
		c0.03,0,0.05-0.06,0.08-0.08c-0.04-0.03-0.07-0.08-0.12-0.09C116.4,136.61,115.68,136.68,114.98,136.95z"/>
	<path class="st0" d="M122.03,149.88c-0.02,0.02-0.01,0.11,0,0.11c0.08,0.02,0.2,0.06,0.25,0.02c0.47-0.41,0.91-0.84,1.36-1.26
		c0.42-0.02,0.74-0.21,0.97-0.56c0.03-0.05-0.01-0.16-0.04-0.23c0-0.02-0.09-0.02-0.13-0.01c-0.39,0.13-0.66,0.39-0.83,0.76
		C122.86,148.81,122.49,149.41,122.03,149.88z"/>
	<path class="st0" d="M137.82,144.25c-0.02-0.04-0.06-0.11-0.07-0.1c-0.41,0.11-0.83,0.23-1.25,0.35c-0.04,0.01-0.07,0.07-0.11,0.1
		c0.08,0.04,0.18,0.13,0.25,0.11c0.38-0.1,0.75-0.22,1.12-0.34C137.78,144.36,137.8,144.29,137.82,144.25z"/>
	<path class="st0" d="M149.97,157.25c0.23-0.16,0.47-0.33,0.68-0.48c-0.05-0.1-0.06-0.15-0.09-0.17c-0.03-0.02-0.1-0.04-0.13-0.02
		c-0.2,0.13-0.39,0.27-0.58,0.42c-0.04,0.04-0.02,0.16-0.01,0.23C149.89,157.26,149.93,157.26,149.97,157.25z"/>
	<path class="st0" d="M136.99,86.51c-0.16-0.19-0.34-0.4-0.52-0.61c-0.04-0.02-0.07-0.02-0.11-0.01c-0.02,0.08-0.08,0.2-0.05,0.25
		c0.14,0.19,0.3,0.36,0.47,0.53c0.04,0.02,0.08,0.03,0.12,0.01C136.91,86.66,136.93,86.61,136.99,86.51z"/>
	<path class="st0" d="M261.67,127.77c-0.09-0.04-0.17-0.08-0.27-0.1c-2.06-0.21-4.12-0.11-6.17,0.12c-1.65,0.19-3.27,0.58-4.9,0.9
		c-0.43,0.08-0.86,0.2-1.27,0.36c-2.02,0.76-4.03,1.53-6.03,2.32c-1.64,0.64-3.31,1.22-4.89,2c-2.16,1.06-4.48,1.4-6.81,1.75
		c-1.55,0.23-3.11,0.31-4.66,0.51c-0.68,0.09-1.34,0.3-2,0.47c-0.08,0.02-0.16,0.11-0.23,0.16l0.34,0.16
		c0.51-0.07,1.09-0.21,1.67-0.2c2.22,0.04,4.38-0.42,6.57-0.7c1.41-0.2,2.78-0.53,4.11-1.02c2.12-0.74,4.2-1.61,6.29-2.45
		c1.46-0.58,2.93-1.12,4.4-1.67c1.47-0.56,2.97-1.01,4.5-1.35c2.97-0.62,5.97-1.1,9.02-1.12
		C261.46,127.87,261.57,127.83,261.67,127.77z"/>
	<path class="st0" d="M257.28,138.46c-0.38-0.07-0.8-0.02-1.16-0.13c-1.53-0.47-3.11-0.31-4.67-0.39c-0.39-0.02-0.79,0.02-1.09,0.34
		c0.25,0.42,0.66,0.2,1,0.22c0.48,0.04,0.97,0,1.45,0.01c1.46,0.06,2.92,0.09,4.37,0.34c0.18,0.03,0.38-0.07,0.56-0.11
		c0.16,0.1,0.31,0.27,0.47,0.28c0.42,0.03,0.85-0.02,1.28-0.03c-0.34-0.32-0.78-0.18-1.16-0.25c-0.19-0.02-0.38-0.02-0.58-0.01
		C257.6,138.64,257.45,138.49,257.28,138.46z"/>
	<path class="st0" d="M190.6,114.63c0.17-0.11,0.29-0.25,0.38-0.43c0.35-0.73,0.97-1.37,0.88-2.27c0.41-0.95,0.73-1.92,0.83-2.95
		c0.02-0.2,0.08-0.38,0.19-0.55c0.55-0.82,0.61-1.83,1.09-2.68c0.27-0.47,0.47-0.96,0.61-1.48c0.28-1.19,0.78-2.3,1.21-3.43
		c0.83-2.14,1.71-4.26,2.58-6.38c0.22-0.54,0.47-1.08,0.71-1.61c0.12-0.27,0.24-0.53,0.34-0.81c0.03-0.08-0.02-0.18-0.04-0.27
		c-0.07,0.03-0.18,0.04-0.2,0.09c-0.44,0.77-0.87,1.53-1.29,2.31c-0.76,1.37-1.57,2.72-2.25,4.13c-0.66,1.36-1.16,2.79-2.09,4.02
		c-0.07,0.07-0.12,0.16-0.16,0.25c-0.21,0.86-0.73,1.57-1,2.41c-0.29,0.88-0.72,1.71-1.04,2.58c-0.28,0.78-0.36,1.64-0.74,2.36
		c-0.53,1-0.35,2.1-0.68,3.16c0.1,0.48,0.19,1.01,0.32,1.53C190.25,114.63,190.52,114.69,190.6,114.63z"/>
	<path class="st0" d="M161.08,120.75c-0.29-1.4-0.97-2.68-2.28-3.48c-0.71-0.44-1.44-0.84-2.14-1.3c-0.7-0.46-1.54-0.62-2.31-0.9
		c-0.38-0.14-0.76-0.17-1.16-0.08c-0.86,0.25-1.68,0.07-2.44-0.2c-1.01-0.35-1.86-0.21-2.79,0.23c-1.09,0.51-1.94,1.28-2.56,2.31
		c-0.09,0.14-0.23,0.38,0.01,0.51c0.14,0.06,0.28,0.05,0.42-0.02c0.39-0.21,0.75-0.47,1.13-0.69c0.47-0.26,0.93-0.57,1.44-0.72
		c0.64-0.2,1.39-0.47,2-0.19c1.04,0.47,2.09,0.47,3.17,0.42c0.34-0.02,0.68,0.01,1.01,0.1c0.99,0.29,1.97,0.6,2.79,1.25
		c0.27,0.21,0.55,0.47,0.86,0.56c1.04,0.29,1.41,1.18,1.78,2.02c0.35,0.81,0.57,1.67,0.85,2.51c0.12,0.36,0.16,0.78,0.53,1
		C161.59,122.95,161.32,121.82,161.08,120.75z"/>
	<path class="st0" d="M161.56,101.45c1.02,1.85,1.95,3.74,3,5.57c1.17,2.03,2.09,4.22,3.12,6.33c0.19,0.4,0.38,0.8,0.58,1.19
		c0.02,0.03,0.13,0.03,0.19,0.02c0.01,0,0.02-0.09,0.03-0.16c-0.03-0.13-0.07-0.27-0.11-0.39c-0.72-1.82-1.42-3.66-2.18-5.46
		c-1.55-3.66-3.5-7.13-5.36-10.64c-0.71-1.34-1.35-2.71-2.19-3.99c-0.67-1.01-1.14-2.16-1.68-3.26c-0.37-0.74-0.83-1.44-1.36-2.08
		c-0.1-0.11-0.22-0.19-0.35-0.24c-0.05-0.02-0.22,0.07-0.22,0.11c0,0.24-0.03,0.51,0.07,0.71c0.57,1.24,1.17,2.48,1.77,3.71
		c0.11,0.22,0.27,0.41,0.39,0.62c0.22,0.38,0.45,0.75,0.65,1.14c0.17,0.3,0.31,0.61,0.42,0.93c0.22,0.78,0.79,1.34,1.15,2.04
		c0.34,0.65,0.68,1.29,1.03,1.93C160.88,100.18,161.21,100.82,161.56,101.45z"/>
	<path class="st0" d="M160.31,88.41c0.4,0.47,0.52,1.03,0.68,1.61c0.15,0.52,0.33,1.03,0.54,1.52c0.47,1.13,0.99,2.24,1.4,3.39
		c0.41,1.15,1.08,2.17,1.48,3.33c0.54,1.57,1.28,3.07,2.02,4.56c1.14,2.33,2.23,4.68,3.29,7.05c0.32,0.72,0.6,1.45,0.91,2.17
		c0.07,0.11,0.15,0.22,0.25,0.31c0.02-0.14,0.09-0.29,0.05-0.41c-0.93-2.79-2.04-5.51-3.18-8.22c-0.61-1.44-1.26-2.87-1.85-4.32
		c-0.74-1.81-1.42-3.64-2.16-5.46c-0.73-1.81-1.5-3.6-2.24-5.4c-0.07-0.18-0.13-0.37-0.18-0.56c-0.38-1.48-1.05-2.83-1.85-4.12
		c-0.04-0.07-0.16-0.1-0.28-0.17c-0.05,0.12-0.16,0.26-0.14,0.35c0.39,1.41,0.79,2.82,1.2,4.23
		C160.24,88.34,160.27,88.37,160.31,88.41z"/>
	<path class="st0" d="M175.69,96.84c0.05,0.44,0.19,0.87,0.19,1.3c0,1.23,0.24,2.43,0.42,3.65c0.21,1.45,0.37,2.91,0.56,4.37
		c0.02,0.1,0.05,0.19,0.09,0.27c0.03,0.04,0.08,0.06,0.13,0.06c0.04,0,0.1-0.06,0.1-0.08c-0.06-0.63-0.12-1.26-0.19-1.89
		c-0.1-0.92-0.23-1.84-0.31-2.77c-0.1-1.02-0.11-2.06-0.27-3.07c-0.21-1.26-0.36-2.52-0.47-3.78c-0.18-2.24-0.39-4.47-0.6-6.71
		c-0.03-0.09-0.06-0.17-0.12-0.24c-0.05,0.08-0.09,0.17-0.12,0.26c-0.12,1.13,0.06,2.25,0.13,3.37
		C175.34,93.34,175.49,95.09,175.69,96.84z"/>
	<path class="st0" d="M244.23,187.53c0,0.02,0,0.04,0,0.06l0.84-0.1c-0.3-0.06-0.6-0.15-0.9-0.19c-0.24-0.02-0.48-0.02-0.71,0
		c-0.04,0-0.08,0.05-0.12,0.07c0.06,0.05,0.11,0.13,0.18,0.13C243.76,187.53,244,187.52,244.23,187.53z"/>
	<path class="st0" d="M231.62,187.66c0.07,0.02,0.17-0.05,0.26-0.07c-0.02-0.04-0.03-0.09-0.07-0.11c-0.25-0.13-0.5-0.25-0.7-0.35
		c-0.07,0.02-0.13,0.04-0.2,0.06c0.01,0.07,0.01,0.17,0.06,0.19C231.18,187.5,231.4,187.59,231.62,187.66z"/>
</g>
<g>
	<path class="st1" d="M45.5,235.4h20.77v2.54H48.14v13.39h17v2.54h-17v17.04H45.5V235.4z"/>
	<path class="st1" d="M81.39,235.4h2.65v32.97h18.42l-0.49,2.54H81.39V235.4z"/>
	<path class="st1" d="M144.56,252.9c0,9.69-5,18.51-15.58,18.51c-9.65,0-15.28-8.06-15.28-18.26c0-10.04,5.44-18.26,15.63-18.26
		C138.73,234.9,144.56,242.55,144.56,252.9z M116.54,253c0,8.17,4.36,15.87,12.59,15.87c8.87,0,12.59-7.51,12.59-15.93
		c0-8.27-4.21-15.52-12.49-15.52C120.41,237.43,116.54,244.99,116.54,253z"/>
	<path class="st1" d="M163.84,254.32v16.59h-2.69v-35.5h12.29c6.76,0,10.34,3.75,10.34,9.33c0,4.51-2.6,7.46-6.42,8.32
		c3.53,0.86,5.88,3.25,5.88,9.28v1.37c0,2.49-0.2,5.83,0.44,7.2h-2.69c-0.64-1.52-0.49-4.36-0.49-7.41v-0.91
		c0-5.83-1.67-8.27-8.23-8.27H163.84z M163.84,251.79h8.28c6.02,0,8.82-2.33,8.82-7c0-4.36-2.74-6.85-8.08-6.85h-9.01V251.79z"/>
	<path class="st1" d="M221.32,253.46h-17.49v14.91h19.15l-0.39,2.54h-21.41v-35.5h21.01v2.54h-18.37v12.98h17.49V253.46z"/>
	<path class="st1" d="M241.49,254.32v16.59h-2.69v-35.5h12.29c6.76,0,10.34,3.75,10.34,9.33c0,4.51-2.6,7.46-6.42,8.32
		c3.53,0.86,5.88,3.25,5.88,9.28v1.37c0,2.49-0.2,5.83,0.44,7.2h-2.69c-0.64-1.52-0.49-4.36-0.49-7.41v-0.91
		c0-5.83-1.67-8.27-8.23-8.27H241.49z M241.49,251.79h8.28c6.02,0,8.82-2.33,8.82-7c0-4.36-2.74-6.85-8.08-6.85h-9.01V251.79z"/>
	<path class="st1" d="M289.91,225.21l-8.23,6.95h-3.04l7.54-6.95H289.91z M281.49,235.4v35.5h-2.65v-35.5H281.49z"/>
	<path class="st1" d="M303.81,258.63l-4.36,12.27h-2.69l12.59-35.5h3.13l13.13,35.5h-2.89l-4.46-12.27H303.81z M317.38,256.1
		c-3.82-10.55-5.78-15.62-6.47-18.01h-0.05c-0.83,2.69-3.04,8.98-6.12,18.01H317.38z"/>
</g>
</svg>
